<svg xmlns="http://www.w3.org/2000/svg" viewBox="0 0 667.69 204.73"><defs><style>.cls-1{fill:#f4fafd;}.cls-2{fill:#d93a45;}</style></defs><g id="Layer_2" data-name="Layer 2"><g id="Layer_1-2" data-name="Layer 1"><g id="Group_113" data-name="Group 113"><path id="Path_1338" data-name="Path 1338" class="cls-1" d="M259.66,152.27a37.7,37.7,0,0,1-19.5-5.09,37.14,37.14,0,0,1-13.62-13.92,39.74,39.74,0,0,1-5-20,39.75,39.75,0,0,1,5-20A37.06,37.06,0,0,1,240.17,79.4a37.64,37.64,0,0,1,19.49-5.09,47.15,47.15,0,0,1,18.43,3.53,32.37,32.37,0,0,1,13.34,9.89l-12.28,14.69a29.64,29.64,0,0,0-4.65-4.24,22.42,22.42,0,0,0-5.94-3.1A20.31,20.31,0,0,0,261.78,94a18,18,0,0,0-9.46,2.46,16.87,16.87,0,0,0-6.35,6.84,21.39,21.39,0,0,0-2.26,10A20.33,20.33,0,0,0,246,123a17.88,17.88,0,0,0,6.42,6.92,17.39,17.39,0,0,0,9.32,2.54,23.9,23.9,0,0,0,6.78-.92,19.62,19.62,0,0,0,5.72-2.75,25.78,25.78,0,0,0,4.87-4.52l12.15,14.83A32.3,32.3,0,0,1,278,148.74,47.65,47.65,0,0,1,259.66,152.27Zm33.9-1.42L332.69,52H353l38.83,98.86H367.56l-18.64-50.13q-1.14-3-2.26-6.36t-2.26-7q-1.14-3.6-2.19-7.07t-1.77-6.42l4.24-.14q-.85,3.53-1.92,6.92t-2.12,6.71c-.7,2.21-1.48,4.43-2.33,6.64s-1.65,4.49-2.4,6.84l-18.63,50Zm18.64-18.92,7.48-18.08h45.48l7.34,18.08ZM427,152.27a49.88,49.88,0,0,1-19.43-3.53,34.24,34.24,0,0,1-13.33-9.46l13.68-11.87a27.32,27.32,0,0,0,9.88,6.42,30,30,0,0,0,10.45,2,13.54,13.54,0,0,0,3.53-.42,8.1,8.1,0,0,0,2.62-1.2,5.5,5.5,0,0,0,1.62-1.84,5.14,5.14,0,0,0,.57-2.46,4.89,4.89,0,0,0-2.55-4.38,27.68,27.68,0,0,0-4.23-1.7c-2-.65-4.52-1.41-7.63-2.26a62.57,62.57,0,0,1-11.51-4,28.51,28.51,0,0,1-7.95-5.44,22.35,22.35,0,0,1-4.38-6.57,20.2,20.2,0,0,1-1.55-8.12A18.4,18.4,0,0,1,399.27,88a24.52,24.52,0,0,1,6.64-7.34,30.51,30.51,0,0,1,9.6-4.73,39.1,39.1,0,0,1,11.22-1.63,48.84,48.84,0,0,1,11.86,1.42,47,47,0,0,1,10.52,4,39.76,39.76,0,0,1,8.69,6.07L445.94,99a33.36,33.36,0,0,0-5.72-4.31,32.92,32.92,0,0,0-6.57-3,20.22,20.22,0,0,0-6.21-1.13,18.19,18.19,0,0,0-3.75.36A7.7,7.7,0,0,0,420.94,92a5.12,5.12,0,0,0-1.69,1.83,5.3,5.3,0,0,0-.57,2.47,5.07,5.07,0,0,0,.78,2.68,6.35,6.35,0,0,0,2.19,2.12,25.32,25.32,0,0,0,4.52,1.91q3.1,1.06,8.48,2.62a72.16,72.16,0,0,1,11.44,4.1,23.89,23.89,0,0,1,7.63,5.37,15.69,15.69,0,0,1,3.39,5.58,20.16,20.16,0,0,1,1.13,6.84,21.3,21.3,0,0,1-4,12.78,27,27,0,0,1-11.09,8.76A39,39,0,0,1,427,152.27Zm69.91,0a49.85,49.85,0,0,1-19.43-3.53,34.35,34.35,0,0,1-13.34-9.46l13.7-11.86a27.27,27.27,0,0,0,9.89,6.42,29.89,29.89,0,0,0,10.45,2,13.59,13.59,0,0,0,3.53-.42,8.15,8.15,0,0,0,2.61-1.2,5.54,5.54,0,0,0,1.63-1.84,5.25,5.25,0,0,0,.56-2.46,4.86,4.86,0,0,0-2.54-4.38,26.76,26.76,0,0,0-4.24-1.69c-2-.66-4.52-1.42-7.62-2.26a63.09,63.09,0,0,1-11.51-4,28.65,28.65,0,0,1-8-5.44,22.3,22.3,0,0,1-4.38-6.56,20.43,20.43,0,0,1-1.56-8.13A18.5,18.5,0,0,1,469.17,88a24.56,24.56,0,0,1,6.63-7.36,30.61,30.61,0,0,1,9.6-4.73,39.2,39.2,0,0,1,11.22-1.63,49,49,0,0,1,11.87,1.42,47.18,47.18,0,0,1,10.52,4,39.94,39.94,0,0,1,8.68,6.07L515.83,99a34,34,0,0,0-12.29-7.35,20.16,20.16,0,0,0-6.21-1.13,18,18,0,0,0-3.74.36A7.68,7.68,0,0,0,490.83,92a4.86,4.86,0,0,0-2.25,4.3,5.06,5.06,0,0,0,.77,2.68,6.35,6.35,0,0,0,2.19,2.12,25.63,25.63,0,0,0,4.52,1.91q3.1,1.06,8.49,2.62a72.87,72.87,0,0,1,11.44,4.1,23.85,23.85,0,0,1,7.62,5.37,15.55,15.55,0,0,1,3.39,5.58,20.16,20.16,0,0,1,1.13,6.84,21.3,21.3,0,0,1-4,12.78A27,27,0,0,1,513,149.09,39,39,0,0,1,496.93,152.27Zm80.36,0a44.43,44.43,0,0,1-21.62-5,36.27,36.27,0,0,1-14.26-13.7,38.53,38.53,0,0,1-5.09-19.84,43,43,0,0,1,2.83-15.82,37.6,37.6,0,0,1,7.91-12.5,35.22,35.22,0,0,1,12.07-8.19,39.85,39.85,0,0,1,15.32-2.9,36.16,36.16,0,0,1,14.48,2.83A33.68,33.68,0,0,1,600.3,85a34.61,34.61,0,0,1,7.34,12,39.45,39.45,0,0,1,2.26,15.11l-.14,6.08H550l-3.25-12.71h44.63L589,108.2v-2.82a12.53,12.53,0,0,0-2.19-6.3,13,13,0,0,0-5-4.3,15.56,15.56,0,0,0-7.06-1.56,18.91,18.91,0,0,0-9.39,2.19,13.94,13.94,0,0,0-5.86,6.36,23.69,23.69,0,0,0-2,10.24,21.42,21.42,0,0,0,2.61,10.8,17.78,17.78,0,0,0,7.61,7.14,26,26,0,0,0,11.94,2.54,24.12,24.12,0,0,0,8.54-1.41,32,32,0,0,0,8.12-4.8l10.6,15a42.77,42.77,0,0,1-9.32,6.21,47.12,47.12,0,0,1-10.1,3.6A44.64,44.64,0,0,1,577.29,152.27Zm53.24-1.42V56.93h22.59v93.92ZM617.27,95.63V75.86h50.42V95.63Z"/></g><path id="Union_2" data-name="Union 2" class="cls-2" d="M97.48,191l18.41-18c9.54-9.85,19.56-19.24,28.93-29.28,1.07-1.15,3-2.05,2.35-3.94s-2.79-1.71-4.27-1.7a16,16,0,0,0-12,4.61q-22.52,23-45.3,45.74c-5.73,5.75-12,6.13-17.77.49-19.94-19.68-39.25-40-59.26-59.59a10.89,10.89,0,0,1-.68-15.38,11,11,0,0,1,.92-.89C28.52,93.18,48,73,68,53.47c4.68-4.57,8.57-9.85,13.53-14.2,4.45-3.9.6-6.48-2.44-8.81-2.46-1.36-3.83.5-5.37,1.88q-3,2.69-5.84,5.47l.22.26L24.44,82.2q-.36.38-.72.72L13.19,93.55,0,80.24,10.55,69.75a6.43,6.43,0,0,1,2.74-2.91l1-.86L56.19,24.32l.06.08A171.14,171.14,0,0,1,71.21,10c6-5,8.75-4.9,14.44.62,10.17,9.87,20.33,19.74,30.16,30C124.17,49.28,133,57.52,141,66.63c3.15,3.59,8,6.54,13.5,3.46-.38-3.58-3.54-5-5.51-7.3C138.46,52,127.66,41.39,117.34,30.37L100.43,13.31,115.62,0l24.91,26.54Q162.76,49,185.06,71.32c3.56,3.56,6.28,7.16,4.13,12.36s-6.85,5.46-11.75,5.35c-10.25-.24-20.51-.31-30.75-.06a15.21,15.21,0,0,1-12.36-5.06c-10-10.48-20.44-20.56-30.46-31-3-3.09-4.61-4.08-8.19-.41Q64.36,84.65,32.47,116.28c-3.47,3.46-4.35,5.41-.3,9.33,13.62,13.17,27,26.58,40,40.38,5.27,5.61,7.08.6,10.29-1.83,4.32-3.29,2.2-5.51-.6-8.27-10.18-10-20.25-20.15-30.35-30.27L45.29,120l6.48-6.32a13.29,13.29,0,0,1,1.08-1l6.9-6.74,39.49,37.91a19.44,19.44,0,0,0,5.54-4.5,169.83,169.83,0,0,0,14.5-15.13,16.42,16.42,0,0,1,14-6.26c4.17,0,7.86,0,11.48,0,5.08,0,10,0,15.87,0,5.1,0,11.06-.34,13.28,5.47,2.67,7,3.32,14.56-2.64,20.45-8.66,8.55-14,17.66-22.93,25.95q-2.36,2.19-4.68,4.44l-29.51,30.48Z"/></g></g></svg>