<svg xmlns="http://www.w3.org/2000/svg" viewBox="0 0 474.09 510.97"><defs><style>.cls-1{fill:#d93a45;}</style></defs><g id="Layer_2" data-name="Layer 2"><g id="Layer_1-2" data-name="Layer 1"><path id="Union_2" data-name="Union 2" class="cls-1" d="M243.3,476.75l45.93-45c23.82-24.59,48.83-48,72.22-73.08,2.68-2.87,7.51-5.11,5.87-9.84-1.62-4.55-7-4.27-10.67-4.24a40,40,0,0,0-30,11.51q-56.19,57.45-113.07,114.16c-14.3,14.34-30,15.29-44.34,1.22-49.77-49.11-98-99.8-147.91-148.74a27.2,27.2,0,0,1,.6-40.61c49.27-49.59,97.83-99.91,147.89-148.7C181.5,122,191.21,108.86,203.6,98c11.09-9.73,1.48-16.18-6.1-22-6.14-3.41-9.56,1.24-13.4,4.69q-7.44,6.69-14.59,13.66l.56.64L61,205.15c-.59.63-1.19,1.23-1.78,1.79L32.92,233.48,0,200.26l26.33-26.19a16.21,16.21,0,0,1,6.83-7.24l2.58-2.15,104.49-104,.17.19a425.88,425.88,0,0,1,37.34-36c14.85-12.4,21.83-12.21,36,1.55C239.15,51.09,264.5,75.73,289,101.28c20.87,21.71,42.82,42.28,62.77,65,7.87,9,19.92,16.32,33.69,8.64-.95-8.92-8.82-12.45-13.74-18.22-26.18-27.05-53.13-53.41-78.91-80.9l-42.2-42.6L288.56,0l62.19,66.25q55.47,56,111.14,111.76c8.88,8.87,15.66,17.87,10.29,30.85-5.52,13.31-17.08,13.61-29.33,13.33-25.57-.58-51.17-.76-76.74-.13a38,38,0,0,1-30.83-12.63c-25-26.17-51-51.32-76-77.48-7.39-7.71-11.52-10.19-20.45-1Q160.62,211.28,81,290.22c-8.66,8.62-10.87,13.49-.74,23.29,34,32.85,67.44,66.33,99.82,100.78,13.16,14,17.66,1.49,25.68-4.58,10.8-8.2,5.51-13.74-1.5-20.64-25.4-25-50.54-50.3-75.74-75.53L113,299.45l16.17-15.78c.89-.95,1.78-1.82,2.69-2.63l17.24-16.82,98.57,94.63a48.92,48.92,0,0,0,13.81-11.22,424.86,424.86,0,0,0,36.2-37.78,41,41,0,0,1,35-15.61c10.4,0,19.62,0,28.64,0,12.69,0,25-.06,39.61.11,12.74.14,27.61-.84,33.14,13.66,6.67,17.42,8.31,36.34-6.59,51-21.6,21.34-35,44.09-57.21,64.78q-5.9,5.46-11.7,11.08L285,511Z"/></g></g></svg>