<?xml version="1.0" encoding="utf-8"?>
<!-- Generator: Adobe Illustrator 25.4.1, SVG Export Plug-In . SVG Version: 6.00 Build 0)  -->
<svg version="1.1" id="Layer_1" xmlns="http://www.w3.org/2000/svg" xmlns:xlink="http://www.w3.org/1999/xlink" x="0px" y="0px"
	 viewBox="0 0 300 100.5" style="enable-background:new 0 0 300 100.5;" xml:space="preserve">
<style type="text/css">
	.st0{fill:#E81F3F;}
	.st1{fill:#FFFFFF;}
</style>
<g>
	<g>
		<path class="st0" d="M83.47,66.38H30.24V36.7h-8.2v33.78c0,2.27,1.84,4.1,4.1,4.1h46.64l-9.63,8.66H11.49V34.12h10.55v0h8.2v0
			h34.48c1.01,0,1.99-0.37,2.74-1.05L86.21,16.2c1.26-1.14,1.7-2.93,1.09-4.52c-0.61-1.59-2.13-2.63-3.83-2.63H26.14
			c-2.26,0-4.1,1.84-4.1,4.1v10.17h8.2v-6.07h42.54l-9.63,8.66H30.24v0h-8.2v0H7.39c-2.26,0-4.1,1.83-4.1,4.1v57.33
			c0,2.27,1.83,4.1,4.1,4.1h57.33c1.01,0,1.99-0.37,2.74-1.05l18.75-16.86c1.26-1.13,1.7-2.93,1.09-4.52
			C86.69,67.43,85.17,66.38,83.47,66.38z"/>
	</g>
	<g>
		<path class="st1" d="M118.24,33.51c6.75,0,14.07,3.68,15.33,12.39c-2.84,0-5.36,0-8.2,0c-1.16-3.31-3.63-4.8-7.13-4.8
			c-4.89,0-8.1,3.68-8.1,9.08c0,4.8,3.17,8.99,8.1,9.04c3.54,0,6.38-1.77,7.27-5.26c2.79,0,5.36,0,8.2,0
			c-1.21,9.22-8.53,12.86-15.46,12.86c-8.29,0.05-16.68-5.54-16.72-16.63C101.56,39.1,109.95,33.51,118.24,33.51z"/>
		<path class="st1" d="M136.21,50.23c0-22.54,33.44-22.54,33.44,0C169.66,72.83,136.21,72.83,136.21,50.23z M161.13,50.23
			c0-11.74-16.35-11.74-16.35,0C144.78,62.06,161.13,62.06,161.13,50.23z"/>
		<path class="st1" d="M201.93,33.79h2.98v32.7c-2.84,0-5.68,0-8.52,0V51.96l-6.94,7.27h-0.93l-6.89-7.27v14.53
			c-2.84,0-5.68,0-8.52,0v-32.7h3.07l12.76,14.16L201.93,33.79z"/>
		<path class="st1" d="M222.7,66.49h-12.3v-32.6h12.3C243.94,33.98,243.94,66.39,222.7,66.49z M218.74,58.9h3.96
			c10.39,0,10.39-17.42,0-17.42h-3.96V58.9z"/>
		<path class="st1" d="M262.52,41.34c-4.85,0-7.27,0-12.07,0v4.61h11.09c0,2.47,0,4.94,0,7.4h-11.09c0,1.91,0,3.77,0,5.73
			c4.8,0,7.59,0,12.48,0c0,2.42,0,4.94,0,7.41c-7.64,0-13.23,0-20.77,0c0-10.9,0-21.8,0-32.6c7.55,0,12.72,0,20.36,0
			C262.52,36.31,262.52,38.82,262.52,41.34z"/>
		<path class="st1" d="M281.48,56.24l-6.24,10.25h-8.71v-1.26l10.53-16.02l-9.41-14.07v-1.26h8.53l5.31,8.48h0.23l5.45-8.48h8.39
			v1.26l-9.41,14.07l10.57,16.02v1.26h-8.76l-6.2-10.25H281.48z"/>
	</g>
</g>
</svg>
