<?xml version="1.0" encoding="utf-8"?>
<!-- Generator: Adobe Illustrator 25.4.1, SVG Export Plug-In . SVG Version: 6.00 Build 0)  -->
<svg version="1.1" id="Layer_1" xmlns="http://www.w3.org/2000/svg" xmlns:xlink="http://www.w3.org/1999/xlink" x="0px" y="0px"
	 viewBox="0 0 300 100.5" style="enable-background:new 0 0 300 100.5;" xml:space="preserve">
<style type="text/css">
	.st0{fill:#E81F3F;}
	.st1{fill:#18325A;}
</style>
<g>
	<g>
		<path class="st0" d="M83.6,66.35H30.47V36.73h-8.18v33.72c0,2.26,1.83,4.09,4.09,4.09h46.54l-9.61,8.64H11.76V34.15h10.53v0h8.18
			v0h34.41c1.01,0,1.98-0.37,2.74-1.05l18.71-16.83c1.26-1.13,1.69-2.92,1.09-4.51c-0.61-1.58-2.13-2.63-3.82-2.63H26.38
			c-2.26,0-4.09,1.83-4.09,4.09v10.15h8.18v-6.06h42.45l-9.61,8.64H30.47v0h-8.18v0H7.67c-2.26,0-4.09,1.83-4.09,4.09v57.21
			c0,2.26,1.83,4.09,4.09,4.09h57.21c1.01,0,1.98-0.37,2.74-1.05l18.71-16.83c1.26-1.13,1.69-2.92,1.09-4.51
			C86.81,67.4,85.29,66.35,83.6,66.35z"/>
	</g>
	<g>
		<path class="st1" d="M118.3,33.54c6.74,0,14.04,3.67,15.3,12.37c-2.84,0-5.35,0-8.18,0c-1.16-3.3-3.63-4.79-7.11-4.79
			c-4.88,0-8.09,3.67-8.09,9.06c0,4.79,3.16,8.97,8.09,9.02c3.53,0,6.37-1.77,7.25-5.25c2.79,0,5.34,0,8.18,0
			c-1.21,9.21-8.51,12.83-15.44,12.83c-8.27,0.05-16.64-5.53-16.69-16.6C101.66,39.12,110.02,33.54,118.3,33.54z"/>
		<path class="st1" d="M136.24,50.23c0-22.5,33.38-22.5,33.38,0C169.62,72.78,136.24,72.78,136.24,50.23z M161.11,50.23
			c0-11.71-16.32-11.71-16.32,0C144.79,62.04,161.11,62.04,161.11,50.23z"/>
		<path class="st1" d="M201.83,33.82h2.97v32.63c-2.84,0-5.67,0-8.51,0v-14.5l-6.93,7.25h-0.93l-6.88-7.25v14.5
			c-2.83,0-5.67,0-8.51,0V33.82h3.07l12.74,14.13L201.83,33.82z"/>
		<path class="st1" d="M222.56,66.46h-12.27V33.92h12.27C243.76,34.01,243.76,66.36,222.56,66.46z M218.61,58.88h3.95
			c10.37,0,10.37-17.39,0-17.39h-3.95V58.88z"/>
		<path class="st1" d="M262.3,41.35c-4.84,0-7.25,0-12.04,0v4.6h11.06c0,2.46,0,4.93,0,7.39h-11.06c0,1.91,0,3.77,0,5.72
			c4.79,0,7.58,0,12.46,0c0,2.42,0,4.93,0,7.39c-7.62,0-13.2,0-20.73,0c0-10.88,0-21.76,0-32.54c7.53,0,12.69,0,20.32,0
			C262.3,36.33,262.3,38.84,262.3,41.35z"/>
		<path class="st1" d="M281.22,56.23l-6.23,10.23h-8.69V65.2l10.51-15.99l-9.39-14.04v-1.25h8.51l5.3,8.46h0.23l5.44-8.46h8.37v1.25
			l-9.39,14.04l10.55,15.99v1.26h-8.74l-6.18-10.23H281.22z"/>
	</g>
</g>
</svg>
