<svg width="218" height="47" viewBox="0 0 218 47" fill="none" xmlns="http://www.w3.org/2000/svg">
<g filter="url(#filter0_d_133_910)">
<path d="M85.7671 15.6445C84.3999 15.6445 83.3413 16.1602 82.5913 17.1914C81.8413 18.2148 81.4663 19.6445 81.4663 21.4805C81.4663 25.3008 82.8999 27.2109 85.7671 27.2109C86.9702 27.2109 88.4272 26.9102 90.1382 26.3086V29.3555C88.7319 29.9414 87.1616 30.2344 85.4272 30.2344C82.9351 30.2344 81.0288 29.4805 79.7085 27.9727C78.3882 26.457 77.728 24.2852 77.728 21.457C77.728 19.6758 78.0522 18.1172 78.7007 16.7812C79.3491 15.4375 80.2788 14.4102 81.4897 13.6992C82.7085 12.9805 84.1343 12.6211 85.7671 12.6211C87.4312 12.6211 89.103 13.0234 90.7827 13.8281L89.6108 16.7812C88.9702 16.4766 88.3257 16.2109 87.6772 15.9844C87.0288 15.7578 86.3921 15.6445 85.7671 15.6445ZM109.345 21.4102C109.345 24.2461 108.642 26.4258 107.236 27.9492C105.83 29.4727 103.814 30.2344 101.189 30.2344C98.564 30.2344 96.5483 29.4727 95.1421 27.9492C93.7358 26.4258 93.0327 24.2383 93.0327 21.3867C93.0327 18.5352 93.7358 16.3594 95.1421 14.8594C96.5562 13.3516 98.5796 12.5977 101.212 12.5977C103.845 12.5977 105.857 13.3555 107.248 14.8711C108.646 16.3867 109.345 18.5664 109.345 21.4102ZM96.8413 21.4102C96.8413 23.3242 97.2046 24.7656 97.9312 25.7344C98.6577 26.7031 99.7437 27.1875 101.189 27.1875C104.087 27.1875 105.537 25.2617 105.537 21.4102C105.537 17.5508 104.095 15.6211 101.212 15.6211C99.7671 15.6211 98.6772 16.1094 97.9429 17.0859C97.2085 18.0547 96.8413 19.4961 96.8413 21.4102ZM120.15 30L116.025 16.5586H115.919C116.068 19.293 116.142 21.1172 116.142 22.0312V30H112.896V12.8672H117.841L121.896 25.9688H121.966L126.267 12.8672H131.212V30H127.826V21.8906C127.826 21.5078 127.83 21.0664 127.837 20.5664C127.853 20.0664 127.908 18.7383 128.001 16.582H127.896L123.478 30H120.15ZM142.791 30L138.666 16.5586H138.56C138.708 19.293 138.783 21.1172 138.783 22.0312V30H135.537V12.8672H140.482L144.537 25.9688H144.607L148.908 12.8672H153.853V30H150.466V21.8906C150.466 21.5078 150.47 21.0664 150.478 20.5664C150.494 20.0664 150.548 18.7383 150.642 16.582H150.537L146.119 30H142.791ZM173.728 21.4102C173.728 24.2461 173.025 26.4258 171.619 27.9492C170.212 29.4727 168.197 30.2344 165.572 30.2344C162.947 30.2344 160.931 29.4727 159.525 27.9492C158.119 26.4258 157.416 24.2383 157.416 21.3867C157.416 18.5352 158.119 16.3594 159.525 14.8594C160.939 13.3516 162.962 12.5977 165.595 12.5977C168.228 12.5977 170.24 13.3555 171.63 14.8711C173.029 16.3867 173.728 18.5664 173.728 21.4102ZM161.224 21.4102C161.224 23.3242 161.587 24.7656 162.314 25.7344C163.041 26.7031 164.126 27.1875 165.572 27.1875C168.47 27.1875 169.919 25.2617 169.919 21.4102C169.919 17.5508 168.478 15.6211 165.595 15.6211C164.15 15.6211 163.06 16.1094 162.326 17.0859C161.591 18.0547 161.224 19.4961 161.224 21.4102ZM191.494 21.2695C191.494 24.0898 190.689 26.25 189.08 27.75C187.478 29.25 185.162 30 182.13 30H177.279V12.8672H182.658C185.455 12.8672 187.626 13.6055 189.173 15.082C190.72 16.5586 191.494 18.6211 191.494 21.2695ZM187.72 21.3633C187.72 17.6836 186.095 15.8438 182.845 15.8438H180.912V27H182.47C185.97 27 187.72 25.1211 187.72 21.3633ZM210.595 21.4102C210.595 24.2461 209.892 26.4258 208.486 27.9492C207.08 29.4727 205.064 30.2344 202.439 30.2344C199.814 30.2344 197.798 29.4727 196.392 27.9492C194.986 26.4258 194.283 24.2383 194.283 21.3867C194.283 18.5352 194.986 16.3594 196.392 14.8594C197.806 13.3516 199.83 12.5977 202.462 12.5977C205.095 12.5977 207.107 13.3555 208.498 14.8711C209.896 16.3867 210.595 18.5664 210.595 21.4102ZM198.091 21.4102C198.091 23.3242 198.455 24.7656 199.181 25.7344C199.908 26.7031 200.994 27.1875 202.439 27.1875C205.337 27.1875 206.787 25.2617 206.787 21.4102C206.787 17.5508 205.345 15.6211 202.462 15.6211C201.017 15.6211 199.927 16.1094 199.193 17.0859C198.458 18.0547 198.091 19.4961 198.091 21.4102Z" fill="white"/>
<path d="M16.468 35.5979C15.2883 34.6579 16.1752 34.0263 16.6611 33.4336C19.9285 29.4453 23.2593 25.5071 28.5923 24.1362C30.0735 23.7554 29.9533 23.194 29.0299 22.2142C26.5613 19.5978 22.9725 19.4674 19.5627 21.9718C14.9656 25.3476 11.7936 29.922 8.75363 34.6156C8.29968 35.3163 7.94101 36.6382 6.61217 35.5501C6.1346 35.1589 5.7355 34.8628 6.2202 34.1136C9.98105 28.3076 13.734 22.4976 20.0196 18.9799C24.0146 16.7443 27.5878 17.3202 30.7223 20.6511C33.8335 23.9547 36.9187 27.2815 40.0112 30.6022C42.4765 33.2484 44.6942 33.5957 47.7356 31.5844C52.8131 28.2245 56.1969 23.3189 59.5718 18.4324C63.3755 12.9248 66.6196 7.08365 69.8689 1.24735C70.319 0.439234 70.5963 -0.514089 71.9594 0.327341C72.9971 0.968112 72.6877 1.50544 72.3183 2.02127L70.5018 5.17651C66.2136 12.8377 61.7698 20.4048 56.0728 27.1644C53.9379 29.6971 51.443 31.8749 48.7415 33.7891C47.3919 34.7452 45.8396 35.3499 44.1613 35.1714C41.8649 35.4113 40.2288 34.2871 38.802 32.779C37.5232 31.4272 36.3642 29.9619 35.0532 28.6421C32.6498 26.2223 29.9321 25.843 26.8885 27.3445C23.3707 29.0796 20.8792 31.9189 18.527 34.9196C18.1619 35.385 17.8885 36 17.3459 36C17.1123 35.9994 16.8293 35.8859 16.468 35.5979ZM39.4506 26.5746C45.0365 24.0929 48.4217 19.5691 51.6061 14.8977C53.7775 11.7118 55.7308 8.37725 57.736 5.0819C58.1622 4.3807 58.4724 3.75846 59.4142 4.35385C60.1998 4.84966 60.5259 5.31501 59.9406 6.30364C56.1198 12.7571 52.3519 19.2446 46.8761 24.5134C45.7421 25.5858 44.5114 26.5523 43.1995 27.4006C42.3118 27.9849 41.7944 28.3019 41.3598 28.3019C40.7943 28.3019 40.369 27.7643 39.4506 26.5746ZM33.9756 20.5821C38.7585 18.5059 41.6132 14.563 44.3603 10.5103C44.944 9.65022 45.548 8.80406 46.1132 7.93217C46.594 7.19231 47.1604 7.4846 47.6392 7.8393C48.0629 8.15347 48.7124 8.40734 48.1553 9.22875C45.1642 13.6405 42.3151 18.1778 37.8161 21.2921C37.1535 21.7503 36.4376 22.1997 35.7559 22.1997C35.1042 22.1993 34.4844 21.7887 33.9756 20.5823V20.5821Z" fill="url(#paint0_linear_133_910)"/>
</g>
<defs>
<filter id="filter0_d_133_910" x="0.666667" y="0" width="215.262" height="46.6667" filterUnits="userSpaceOnUse" color-interpolation-filters="sRGB">
<feFlood flood-opacity="0" result="BackgroundImageFix"/>
<feColorMatrix in="SourceAlpha" type="matrix" values="0 0 0 0 0 0 0 0 0 0 0 0 0 0 0 0 0 0 127 0" result="hardAlpha"/>
<feOffset dy="5.33333"/>
<feGaussianBlur stdDeviation="2.66667"/>
<feComposite in2="hardAlpha" operator="out"/>
<feColorMatrix type="matrix" values="0 0 0 0 0 0 0 0 0 0 0 0 0 0 0 0 0 0 0.25 0"/>
<feBlend mode="normal" in2="BackgroundImageFix" result="effect1_dropShadow_133_910"/>
<feBlend mode="normal" in="SourceGraphic" in2="effect1_dropShadow_133_910" result="shape"/>
</filter>
<linearGradient id="paint0_linear_133_910" x1="39.3333" y1="0" x2="39.3333" y2="36" gradientUnits="userSpaceOnUse">
<stop stop-color="#E2F7E5"/>
<stop offset="1" stop-color="#52B788"/>
</linearGradient>
</defs>
</svg>
