<svg width="170" height="27" viewBox="0 0 170 27" fill="none" xmlns="http://www.w3.org/2000/svg">
<path d="M71.0752 11.2334C70.0498 11.2334 69.2559 11.6201 68.6934 12.3936C68.1309 13.1611 67.8496 14.2334 67.8496 15.6104C67.8496 18.4756 68.9248 19.9082 71.0752 19.9082C71.9775 19.9082 73.0703 19.6826 74.3535 19.2314V21.5166C73.2988 21.9561 72.1211 22.1758 70.8203 22.1758C68.9512 22.1758 67.5215 21.6104 66.5312 20.4795C65.541 19.3428 65.0459 17.7139 65.0459 15.5928C65.0459 14.2568 65.2891 13.0879 65.7754 12.0859C66.2617 11.0781 66.959 10.3076 67.8672 9.77441C68.7812 9.23535 69.8506 8.96582 71.0752 8.96582C72.3232 8.96582 73.5771 9.26758 74.8369 9.87109L73.958 12.0859C73.4775 11.8574 72.9941 11.6582 72.5078 11.4883C72.0215 11.3184 71.5439 11.2334 71.0752 11.2334ZM88.7588 15.5576C88.7588 17.6846 88.2314 19.3193 87.1768 20.4619C86.1221 21.6045 84.6104 22.1758 82.6416 22.1758C80.6729 22.1758 79.1611 21.6045 78.1064 20.4619C77.0518 19.3193 76.5244 17.6787 76.5244 15.54C76.5244 13.4014 77.0518 11.7695 78.1064 10.6445C79.167 9.51367 80.6846 8.94824 82.6592 8.94824C84.6338 8.94824 86.1426 9.5166 87.1855 10.6533C88.2344 11.79 88.7588 13.4248 88.7588 15.5576ZM79.3809 15.5576C79.3809 16.9932 79.6533 18.0742 80.1982 18.8008C80.7432 19.5273 81.5576 19.8906 82.6416 19.8906C84.8154 19.8906 85.9023 18.4463 85.9023 15.5576C85.9023 12.6631 84.8213 11.2158 82.6592 11.2158C81.5752 11.2158 80.7578 11.582 80.207 12.3145C79.6562 13.041 79.3809 14.1221 79.3809 15.5576ZM96.8623 22L93.7686 11.9189H93.6895C93.8008 13.9697 93.8564 15.3379 93.8564 16.0234V22H91.4219V9.15039H95.1309L98.1719 18.9766H98.2246L101.45 9.15039H105.159V22H102.619V15.918C102.619 15.6309 102.622 15.2998 102.628 14.9248C102.64 14.5498 102.681 13.5537 102.751 11.9365H102.672L99.3584 22H96.8623ZM113.843 22L110.749 11.9189H110.67C110.781 13.9697 110.837 15.3379 110.837 16.0234V22H108.402V9.15039H112.111L115.152 18.9766H115.205L118.431 9.15039H122.14V22H119.6V15.918C119.6 15.6309 119.603 15.2998 119.608 14.9248C119.62 14.5498 119.661 13.5537 119.731 11.9365H119.652L116.339 22H113.843ZM137.046 15.5576C137.046 17.6846 136.519 19.3193 135.464 20.4619C134.409 21.6045 132.897 22.1758 130.929 22.1758C128.96 22.1758 127.448 21.6045 126.394 20.4619C125.339 19.3193 124.812 17.6787 124.812 15.54C124.812 13.4014 125.339 11.7695 126.394 10.6445C127.454 9.51367 128.972 8.94824 130.946 8.94824C132.921 8.94824 134.43 9.5166 135.473 10.6533C136.521 11.79 137.046 13.4248 137.046 15.5576ZM127.668 15.5576C127.668 16.9932 127.94 18.0742 128.485 18.8008C129.03 19.5273 129.845 19.8906 130.929 19.8906C133.103 19.8906 134.189 18.4463 134.189 15.5576C134.189 12.6631 133.108 11.2158 130.946 11.2158C129.862 11.2158 129.045 11.582 128.494 12.3145C127.943 13.041 127.668 14.1221 127.668 15.5576ZM150.37 15.4521C150.37 17.5674 149.767 19.1875 148.56 20.3125C147.358 21.4375 145.621 22 143.348 22H139.709V9.15039H143.743C145.841 9.15039 147.47 9.7041 148.63 10.8115C149.79 11.9189 150.37 13.4658 150.37 15.4521ZM147.54 15.5225C147.54 12.7627 146.321 11.3828 143.884 11.3828H142.434V19.75H143.603C146.228 19.75 147.54 18.3408 147.54 15.5225ZM164.696 15.5576C164.696 17.6846 164.169 19.3193 163.114 20.4619C162.06 21.6045 160.548 22.1758 158.579 22.1758C156.61 22.1758 155.099 21.6045 154.044 20.4619C152.989 19.3193 152.462 17.6787 152.462 15.54C152.462 13.4014 152.989 11.7695 154.044 10.6445C155.104 9.51367 156.622 8.94824 158.597 8.94824C160.571 8.94824 162.08 9.5166 163.123 10.6533C164.172 11.79 164.696 13.4248 164.696 15.5576ZM155.318 15.5576C155.318 16.9932 155.591 18.0742 156.136 18.8008C156.681 19.5273 157.495 19.8906 158.579 19.8906C160.753 19.8906 161.84 18.4463 161.84 15.5576C161.84 12.6631 160.759 11.2158 158.597 11.2158C157.513 11.2158 156.695 11.582 156.145 12.3145C155.594 13.041 155.318 14.1221 155.318 15.5576Z" fill="#001E11"/>
<path d="M7.85099 26.6984C6.96622 25.9934 7.63138 25.5198 7.99585 25.0752C10.4464 22.084 12.9445 19.1303 16.9442 18.1021C18.0551 17.8165 17.9649 17.3955 17.2724 16.6607C15.421 14.6984 12.7294 14.6006 10.172 16.4789C6.72421 19.0107 4.34521 22.4415 2.06522 25.9617C1.72476 26.4873 1.45576 27.4786 0.459129 26.6625C0.100947 26.3692 -0.198374 26.1471 0.165152 25.5852C2.98579 21.2307 5.80046 16.8732 10.5147 14.2349C13.5109 12.5582 16.1908 12.9901 18.5417 15.4883C20.8751 17.966 23.189 20.4611 25.5084 22.9516C27.3574 24.9363 29.0207 25.1968 31.3017 23.6883C35.1099 21.1684 37.6477 17.4891 40.1789 13.8243C43.0317 9.6936 45.4647 5.31274 47.9017 0.935509C48.2393 0.329425 48.4473 -0.385567 49.4696 0.245506C50.2478 0.726084 50.0157 1.12908 49.7388 1.51595L48.3764 3.88238C45.1602 9.62824 41.8274 15.3036 37.5546 20.3733C35.9535 22.2728 34.0823 23.9062 32.0561 25.3418C31.0439 26.0589 29.8797 26.5124 28.621 26.3785C26.8987 26.5585 25.6716 25.7153 24.6015 24.5842C23.6424 23.5704 22.7731 22.4714 21.7899 21.4816C19.9874 19.6668 17.9491 19.3823 15.6664 20.5084C13.028 21.8097 11.1594 23.9392 9.39522 26.1897C9.12143 26.5387 8.91634 27 8.5094 27C8.33425 26.9995 8.12197 26.9144 7.85099 26.6984ZM25.088 19.9309C29.2774 18.0697 31.8163 14.6768 34.2046 11.1733C35.8332 8.78383 37.2981 6.28294 38.802 3.81142C39.1217 3.28553 39.3543 2.81884 40.0606 3.26539C40.6499 3.63724 40.8944 3.98625 40.4555 4.72773C37.5898 9.56782 34.764 14.4335 30.6571 18.385C29.8066 19.1894 28.8835 19.9142 27.8996 20.5504C27.2339 20.9887 26.8458 21.2264 26.5199 21.2264C26.0958 21.2264 25.7768 20.8233 25.088 19.9309V19.9309ZM20.9817 15.4366C24.5689 13.8794 26.7099 10.9223 28.7702 7.88272C29.208 7.23766 29.661 6.60304 30.0849 5.94913C30.4455 5.39423 30.8703 5.61345 31.2294 5.87947C31.5472 6.1151 32.0343 6.3055 31.6165 6.92156C29.3731 10.2304 27.2363 13.6333 23.8621 15.9691C23.3651 16.3127 22.8282 16.6498 22.3169 16.6498C21.8281 16.6495 21.3633 16.3415 20.9817 15.4368V15.4366Z" fill="url(#paint0_linear_623_155)"/>
<defs>
<linearGradient id="paint0_linear_623_155" x1="25" y1="0" x2="25" y2="27" gradientUnits="userSpaceOnUse">
<stop stop-color="#081C15"/>
<stop offset="1" stop-color="#52B788"/>
</linearGradient>
</defs>
</svg>
