<svg width="1755" height="455" viewBox="0 0 1755 455" fill="none" xmlns="http://www.w3.org/2000/svg">
<path d="M300.709 212.651H398.776C397.007 191.965 392.028 171.68 384.017 152.526C372.185 124.101 353.94 98.796 330.707 78.5899C307.475 58.3839 279.885 43.8238 250.093 36.0476V0.0253906H216.736V128.739C237.738 132.212 257.128 142.168 272.189 157.211C287.275 172.243 297.252 191.637 300.709 212.651V212.651ZM250.093 65.9265C276.818 74.1342 301.129 88.756 320.905 108.517C340.681 128.277 355.323 152.577 363.552 179.295H319.259C319.251 179.207 319.223 179.121 319.177 179.045C306.08 147.898 281.267 123.145 250.088 110.124L250.093 65.9265Z" fill="#325BC1"/>
<path d="M145.849 36.734C137.796 38.9856 129.887 41.7228 122.165 44.9307C85.9648 60.2487 55.076 85.8859 33.3511 118.644C11.6263 151.403 0.0269683 189.832 7.92381e-05 229.14C-0.0387454 272.788 14.1907 315.253 40.5207 350.066C66.8508 384.879 103.838 410.132 145.849 421.977V454.457H179.205V329.221C156.251 324.438 135.644 311.896 120.852 293.704C106.06 275.512 97.9845 252.781 97.9847 229.334C97.9786 205.882 106.051 183.145 120.844 164.948C135.637 146.75 156.247 134.204 179.205 129.421V0H145.849V36.734ZM145.849 111.992C123.463 122.342 104.505 138.881 91.2143 159.657C77.9234 180.432 70.8542 204.576 70.8409 229.239C70.8186 253.931 77.8716 278.112 91.1648 298.92C104.458 319.728 123.435 336.291 145.849 346.65V391.515C111.85 380.126 82.2892 358.341 61.3434 329.239C40.3975 300.138 29.1255 265.19 29.1198 229.334C29.1212 193.471 40.3933 158.516 61.3428 129.409C82.2924 100.302 111.86 78.5143 145.866 67.1263L145.849 111.992Z" fill="#325BC1"/>
<path d="M369.722 250.168H299.925C295.843 269.738 286.103 287.678 271.915 301.761C257.727 315.844 239.715 325.45 220.116 329.387H216.699V454.481H250.055V423.161C259.571 420.706 268.894 417.557 277.95 413.739C310.798 399.705 339.292 377.135 360.475 348.373C381.657 319.61 394.755 285.702 398.411 250.168H369.722ZM250.06 392.846V348.567C250.142 348.524 250.267 348.485 250.353 348.442C280.028 335.941 303.946 312.781 317.397 283.525H362.22C353.552 309.345 338.857 332.73 319.352 351.741C299.847 370.752 276.094 384.843 250.06 392.846V392.846Z" fill="#325BC1"/>
<path d="M549.943 303.27C538.725 303.27 528.278 301.376 518.602 297.59C509.066 293.664 500.722 288.265 493.571 281.394C486.419 274.522 480.81 266.529 476.743 257.414C472.817 248.159 470.854 238.203 470.854 227.545C470.854 216.748 472.817 206.791 476.743 197.676C480.81 188.421 486.419 180.358 493.571 173.487C500.863 166.615 509.277 161.287 518.812 157.5C528.488 153.574 538.865 151.611 549.943 151.611C558.077 151.611 566.07 152.803 573.923 155.187C581.775 157.571 588.997 160.936 595.588 165.283C602.319 169.49 607.928 174.538 612.416 180.428L588.016 204.407C582.827 197.817 577.008 192.909 570.557 189.683C564.247 186.458 557.375 184.845 549.943 184.845C544.054 184.845 538.514 185.967 533.326 188.211C528.278 190.314 523.86 193.259 520.074 197.045C516.288 200.832 513.343 205.319 511.24 210.507C509.136 215.696 508.085 221.375 508.085 227.545C508.085 233.575 509.136 239.184 511.24 244.373C513.483 249.421 516.498 253.909 520.285 257.835C524.211 261.621 528.768 264.566 533.957 266.669C539.286 268.773 545.035 269.825 551.205 269.825C558.357 269.825 564.948 268.282 570.978 265.197C577.148 262.112 582.687 257.555 587.595 251.525L611.364 274.873C606.877 280.622 601.337 285.671 594.747 290.018C588.156 294.225 581.004 297.52 573.291 299.904C565.579 302.148 557.796 303.27 549.943 303.27Z" fill="#262C3A"/>
<path d="M697.01 303.48C685.932 303.48 675.625 301.587 666.09 297.801C656.554 293.874 648.21 288.475 641.059 281.604C633.907 274.592 628.298 266.529 624.231 257.414C620.305 248.159 618.341 238.203 618.341 227.545C618.341 216.888 620.305 207.002 624.231 197.887C628.298 188.632 633.907 180.568 641.059 173.697C648.21 166.686 656.554 161.287 666.09 157.5C675.625 153.574 685.932 151.611 697.01 151.611C708.089 151.611 718.395 153.574 727.931 157.5C737.467 161.287 745.81 166.686 752.962 173.697C760.114 180.568 765.653 188.632 769.579 197.887C773.646 207.002 775.679 216.888 775.679 227.545C775.679 238.203 773.646 248.159 769.579 257.414C765.653 266.529 760.114 274.592 752.962 281.604C745.81 288.475 737.467 293.874 727.931 297.801C718.395 301.587 708.089 303.48 697.01 303.48ZM697.01 270.245C702.9 270.245 708.369 269.194 713.417 267.09C718.466 264.847 722.813 261.832 726.459 258.045C730.245 254.259 733.19 249.772 735.293 244.583C737.397 239.255 738.448 233.575 738.448 227.545C738.448 221.375 737.397 215.696 735.293 210.507C733.19 205.319 730.245 200.832 726.459 197.045C722.813 193.259 718.466 190.314 713.417 188.211C708.369 185.967 702.9 184.845 697.01 184.845C691.121 184.845 685.652 185.967 680.604 188.211C675.555 190.314 671.138 193.259 667.352 197.045C663.706 200.832 660.831 205.319 658.728 210.507C656.624 215.696 655.572 221.305 655.572 227.335C655.572 233.505 656.624 239.255 658.728 244.583C660.831 249.772 663.706 254.259 667.352 258.045C671.138 261.832 675.555 264.847 680.604 267.09C685.652 269.194 691.121 270.245 697.01 270.245Z" fill="#262C3A"/>
<path d="M794.916 301.166V153.925H840.561L876.951 223.338L913.34 153.925H958.985V301.166H924.909V200.832L876.53 290.649L828.151 200.411V301.166H794.916Z" fill="#262C3A"/>
<path d="M983.487 301.166V153.925H1061.1C1070.78 153.925 1079.33 156.028 1086.77 160.235C1094.34 164.302 1100.3 169.911 1104.65 177.063C1108.99 184.214 1111.17 192.418 1111.17 201.673C1111.17 210.507 1108.99 218.501 1104.65 225.652C1100.3 232.664 1094.34 238.203 1086.77 242.269C1079.19 246.336 1070.64 248.369 1061.1 248.369H1019.67V301.166H983.487ZM1019.67 218.501H1056.9C1062.23 218.501 1066.5 216.958 1069.73 213.873C1072.95 210.788 1074.57 206.791 1074.57 201.883C1074.57 196.835 1072.95 192.768 1069.73 189.683C1066.5 186.458 1062.23 184.845 1056.9 184.845H1019.67V218.501Z" fill="#262C3A"/>
<path d="M1203.15 303.48C1192.07 303.48 1181.77 301.587 1172.23 297.801C1162.7 293.874 1154.35 288.475 1147.2 281.604C1140.05 274.592 1134.44 266.529 1130.37 257.414C1126.45 248.159 1124.48 238.203 1124.48 227.545C1124.48 216.888 1126.45 207.002 1130.37 197.887C1134.44 188.632 1140.05 180.568 1147.2 173.697C1154.35 166.686 1162.7 161.287 1172.23 157.5C1181.77 153.574 1192.07 151.611 1203.15 151.611C1214.23 151.611 1224.54 153.574 1234.07 157.5C1243.61 161.287 1251.95 166.686 1259.1 173.697C1266.26 180.568 1271.8 188.632 1275.72 197.887C1279.79 207.002 1281.82 216.888 1281.82 227.545C1281.82 238.203 1279.79 248.159 1275.72 257.414C1271.8 266.529 1266.26 274.592 1259.1 281.604C1251.95 288.475 1243.61 293.874 1234.07 297.801C1224.54 301.587 1214.23 303.48 1203.15 303.48ZM1203.15 270.245C1209.04 270.245 1214.51 269.194 1219.56 267.09C1224.61 264.847 1228.96 261.832 1232.6 258.045C1236.39 254.259 1239.33 249.772 1241.44 244.583C1243.54 239.255 1244.59 233.575 1244.59 227.545C1244.59 221.375 1243.54 215.696 1241.44 210.507C1239.33 205.319 1236.39 200.832 1232.6 197.045C1228.96 193.259 1224.61 190.314 1219.56 188.211C1214.51 185.967 1209.04 184.845 1203.15 184.845C1197.26 184.845 1191.79 185.967 1186.75 188.211C1181.7 190.314 1177.28 193.259 1173.49 197.045C1169.85 200.832 1166.97 205.319 1164.87 210.507C1162.77 215.696 1161.71 221.305 1161.71 227.335C1161.71 233.505 1162.77 239.255 1164.87 244.583C1166.97 249.772 1169.85 254.259 1173.49 258.045C1177.28 261.832 1181.7 264.847 1186.75 267.09C1191.79 269.194 1197.26 270.245 1203.15 270.245Z" fill="#262C3A"/>
<path d="M1355.33 303.27C1343.41 303.27 1331.63 301.096 1319.99 296.749C1308.35 292.402 1297.97 286.372 1288.86 278.659L1309.05 252.366C1318.03 259.658 1326.3 264.917 1333.87 268.142C1341.44 271.227 1349.51 272.769 1358.06 272.769C1363.67 272.769 1368.44 272.209 1372.37 271.087C1376.29 269.965 1379.31 268.352 1381.41 266.249C1383.51 264.005 1384.57 261.411 1384.57 258.466C1384.57 254.399 1383.02 251.244 1379.94 249.001C1376.85 246.757 1371.59 245.004 1364.16 243.742L1331.77 238.063C1319.85 235.959 1310.66 231.402 1304.21 224.39C1297.76 217.379 1294.54 208.474 1294.54 197.676C1294.54 188.141 1296.92 179.937 1301.69 173.066C1306.6 166.195 1313.54 160.936 1322.51 157.29C1331.63 153.644 1342.43 151.821 1354.91 151.821C1365.84 151.821 1376.85 153.714 1387.93 157.5C1399.01 161.146 1408.61 166.265 1416.75 172.856L1397.61 199.569C1382.46 187.93 1367.39 182.111 1352.38 182.111C1347.47 182.111 1343.2 182.672 1339.55 183.794C1336.05 184.775 1333.31 186.248 1331.35 188.211C1329.53 190.034 1328.61 192.278 1328.61 194.942C1328.61 198.588 1329.95 201.392 1332.61 203.356C1335.41 205.319 1339.9 206.861 1346.07 207.983L1376.57 213.032C1390.74 215.275 1401.46 219.973 1408.76 227.125C1416.19 234.276 1419.9 243.532 1419.9 254.89C1419.9 264.847 1417.31 273.471 1412.12 280.763C1406.93 287.914 1399.5 293.453 1389.82 297.38C1380.15 301.306 1368.65 303.27 1355.33 303.27Z" fill="#262C3A"/>
<path d="M1436.43 301.166V153.925H1472.61V301.166H1436.43Z" fill="#262C3A"/>
<path d="M1536.78 301.166V185.897H1488.61V153.925H1621.13V185.897H1572.96V301.166H1536.78Z" fill="#262C3A"/>
<path d="M1637.12 301.166V153.925H1753.23V185.266H1673.3V211.769H1726.09V242.059H1673.3V269.825H1754.07V301.166H1637.12Z" fill="#262C3A"/>
</svg>
