<svg width="221" height="37" viewBox="0 0 221 37" fill="none" xmlns="http://www.w3.org/2000/svg">
<path d="M24.437 17.281H32.4063C32.2626 15.6 31.858 13.9515 31.207 12.395C30.2455 10.085 28.7628 8.02864 26.8748 6.38661C24.9868 4.74458 22.7447 3.56136 20.3237 2.92943V0.00210953H17.613V10.4619C19.3197 10.7442 20.8954 11.5532 22.1194 12.7757C23.3453 13.9972 24.1561 15.5733 24.437 17.281ZM20.3237 5.35752C22.4955 6.02451 24.4711 7.21275 26.0782 8.81858C27.6854 10.4244 28.8752 12.3991 29.5439 14.5703H25.9445C25.9438 14.5632 25.9416 14.5562 25.9378 14.55C24.8735 12.0189 22.8571 10.0074 20.3234 8.94919L20.3237 5.35752Z" fill="white"/>
<path d="M11.8523 2.98517C11.1979 3.16814 10.5552 3.39058 9.92764 3.65126C6.98587 4.89607 4.47572 6.97946 2.71026 9.64155C0.944802 12.3036 0.00219156 15.4266 6.43924e-06 18.6209C-0.00314862 22.168 1.1532 25.6189 3.29289 28.4479C5.43259 31.277 8.43834 33.3291 11.8523 34.2917V36.9312H14.563V26.7539C12.6976 26.3653 11.0231 25.3461 9.82098 23.8677C8.61889 22.3893 7.96265 20.5421 7.96267 18.6367C7.96217 16.7309 8.61819 14.8832 9.82031 13.4044C11.0224 11.9256 12.6973 10.906 14.563 10.5173V0H11.8523V2.98517ZM11.8523 9.10099C10.0331 9.94207 8.49255 11.2861 7.41247 12.9744C6.3324 14.6627 5.75792 16.6247 5.75684 18.629C5.75503 20.6355 6.32818 22.6006 7.40845 24.2915C8.48871 25.9825 10.0308 27.3285 11.8523 28.1703V31.8163C9.08941 30.8907 6.68718 29.1204 4.98503 26.7554C3.28288 24.3905 2.36686 21.5505 2.3664 18.6367C2.36652 15.7223 3.28254 12.8817 4.98499 10.5163C6.68744 8.15096 9.09022 6.38042 11.8537 5.45498L11.8523 9.10099Z" fill="white"/>
<path d="M30.0457 20.3297H24.3737C24.0419 21.92 23.2504 23.3779 22.0974 24.5223C20.9444 25.6668 19.4807 26.4474 17.888 26.7674H17.6104V36.933H20.321V34.3879C21.0943 34.1883 21.8519 33.9324 22.5878 33.6222C25.2573 32.4817 27.5728 30.6476 29.2942 28.3102C31.0155 25.9728 32.08 23.2173 32.377 20.3297H30.0457ZM20.3214 31.9243V28.326C20.328 28.3225 20.3382 28.3194 20.3452 28.3159C22.7567 27.3 24.7004 25.4179 25.7935 23.0404H29.436C28.7316 25.1387 27.5374 27.039 25.9524 28.5839C24.3673 30.1288 22.437 31.2739 20.3214 31.9243Z" fill="white"/>
<path d="M54.032 28.1403C52.4764 28.1403 51.0278 27.8778 49.6861 27.3528C48.3639 26.8083 47.2069 26.0597 46.2152 25.1069C45.2236 24.1541 44.4458 23.0458 43.8819 21.7819C43.3374 20.4985 43.0652 19.1179 43.0652 17.6401C43.0652 16.1429 43.3374 14.7623 43.8819 13.4984C44.4458 12.2151 45.2236 11.097 46.2152 10.1442C47.2264 9.1914 48.393 8.4525 49.7153 7.92749C51.057 7.38304 52.4959 7.11082 54.032 7.11082C55.1598 7.11082 56.2682 7.2761 57.3571 7.60666C58.446 7.93722 59.4474 8.40389 60.3613 9.00668C61.2946 9.59002 62.0724 10.29 62.6947 11.1067L59.3113 14.4318C58.5918 13.5179 57.7849 12.8373 56.8904 12.3901C56.0154 11.9428 55.0626 11.7192 54.032 11.7192C53.2153 11.7192 52.4473 11.8748 51.7278 12.1859C51.0278 12.4776 50.4153 12.8859 49.8903 13.4109C49.3653 13.9359 48.9569 14.5582 48.6653 15.2776C48.3736 15.9971 48.2278 16.7846 48.2278 17.6401C48.2278 18.4763 48.3736 19.2541 48.6653 19.9735C48.9764 20.6735 49.3945 21.2958 49.9195 21.8402C50.4639 22.3652 51.0959 22.7736 51.8153 23.0652C52.5542 23.3569 53.3515 23.5027 54.207 23.5027C55.1987 23.5027 56.1126 23.2888 56.9487 22.8611C57.8043 22.4333 58.5724 21.8013 59.2529 20.9652L62.5488 24.2028C61.9266 25 61.1585 25.7 60.2446 26.3028C59.3307 26.8861 58.339 27.3431 57.2696 27.6736C56.2001 27.9848 55.1209 28.1403 54.032 28.1403Z" fill="white"/>
<path d="M74.4249 28.1695C72.8887 28.1695 71.4595 27.907 70.1373 27.382C68.815 26.8375 67.6581 26.0889 66.6664 25.1361C65.6747 24.1639 64.8969 23.0458 64.333 21.7819C63.7886 20.4985 63.5164 19.1179 63.5164 17.6401C63.5164 16.1623 63.7886 14.7915 64.333 13.5276C64.8969 12.2442 65.6747 11.1262 66.6664 10.1734C67.6581 9.20113 68.815 8.4525 70.1373 7.92749C71.4595 7.38304 72.8887 7.11082 74.4249 7.11082C75.961 7.11082 77.3902 7.38304 78.7124 7.92749C80.0347 8.4525 81.1916 9.20113 82.1833 10.1734C83.175 11.1262 83.9431 12.2442 84.4875 13.5276C85.0514 14.7915 85.3334 16.1623 85.3334 17.6401C85.3334 19.1179 85.0514 20.4985 84.4875 21.7819C83.9431 23.0458 83.175 24.1639 82.1833 25.1361C81.1916 26.0889 80.0347 26.8375 78.7124 27.382C77.3902 27.907 75.961 28.1695 74.4249 28.1695ZM74.4249 23.5611C75.2415 23.5611 75.9999 23.4152 76.6999 23.1236C77.3999 22.8125 78.0027 22.3944 78.5083 21.8694C79.0333 21.3444 79.4416 20.7221 79.7333 20.0027C80.0249 19.2638 80.1708 18.4763 80.1708 17.6401C80.1708 16.7846 80.0249 15.9971 79.7333 15.2776C79.4416 14.5582 79.0333 13.9359 78.5083 13.4109C78.0027 12.8859 77.3999 12.4776 76.6999 12.1859C75.9999 11.8748 75.2415 11.7192 74.4249 11.7192C73.6082 11.7192 72.8498 11.8748 72.1498 12.1859C71.4498 12.4776 70.8373 12.8859 70.3123 13.4109C69.8067 13.9359 69.4081 14.5582 69.1164 15.2776C68.8248 15.9971 68.6789 16.7749 68.6789 17.611C68.6789 18.4665 68.8248 19.2638 69.1164 20.0027C69.4081 20.7221 69.8067 21.3444 70.3123 21.8694C70.8373 22.3944 71.4498 22.8125 72.1498 23.1236C72.8498 23.4152 73.6082 23.5611 74.4249 23.5611Z" fill="white"/>
<path d="M88.0008 27.8486V7.43165H94.33L99.376 17.0568L104.422 7.43165H110.751V27.8486H106.026V13.9359L99.3176 26.3903L92.6092 13.8776V27.8486H88.0008Z" fill="white"/>
<path d="M114.149 27.8486V7.43165H124.911C126.253 7.43165 127.439 7.72332 128.47 8.30667C129.52 8.87056 130.346 9.64835 130.949 10.64C131.552 11.6317 131.853 12.7692 131.853 14.0526C131.853 15.2776 131.552 16.386 130.949 17.3776C130.346 18.3499 129.52 19.1179 128.47 19.6818C127.42 20.2457 126.234 20.5277 124.911 20.5277H119.165V27.8486H114.149ZM119.165 16.386H124.328C125.067 16.386 125.66 16.1721 126.107 15.7443C126.554 15.3165 126.778 14.7623 126.778 14.0818C126.778 13.3817 126.554 12.8178 126.107 12.3901C125.66 11.9428 125.067 11.7192 124.328 11.7192H119.165V16.386Z" fill="white"/>
<path d="M144.608 28.1695C143.072 28.1695 141.643 27.907 140.321 27.382C138.998 26.8375 137.841 26.0889 136.85 25.1361C135.858 24.1639 135.08 23.0458 134.516 21.7819C133.972 20.4985 133.7 19.1179 133.7 17.6401C133.7 16.1623 133.972 14.7915 134.516 13.5276C135.08 12.2442 135.858 11.1262 136.85 10.1734C137.841 9.20113 138.998 8.4525 140.321 7.92749C141.643 7.38304 143.072 7.11082 144.608 7.11082C146.144 7.11082 147.574 7.38304 148.896 7.92749C150.218 8.4525 151.375 9.20113 152.367 10.1734C153.358 11.1262 154.126 12.2442 154.671 13.5276C155.235 14.7915 155.517 16.1623 155.517 17.6401C155.517 19.1179 155.235 20.4985 154.671 21.7819C154.126 23.0458 153.358 24.1639 152.367 25.1361C151.375 26.0889 150.218 26.8375 148.896 27.382C147.574 27.907 146.144 28.1695 144.608 28.1695ZM144.608 23.5611C145.425 23.5611 146.183 23.4152 146.883 23.1236C147.583 22.8125 148.186 22.3944 148.692 21.8694C149.217 21.3444 149.625 20.7221 149.917 20.0027C150.208 19.2638 150.354 18.4763 150.354 17.6401C150.354 16.7846 150.208 15.9971 149.917 15.2776C149.625 14.5582 149.217 13.9359 148.692 13.4109C148.186 12.8859 147.583 12.4776 146.883 12.1859C146.183 11.8748 145.425 11.7192 144.608 11.7192C143.792 11.7192 143.033 11.8748 142.333 12.1859C141.633 12.4776 141.021 12.8859 140.496 13.4109C139.99 13.9359 139.591 14.5582 139.3 15.2776C139.008 15.9971 138.862 16.7749 138.862 17.611C138.862 18.4665 139.008 19.2638 139.3 20.0027C139.591 20.7221 139.99 21.3444 140.496 21.8694C141.021 22.3944 141.633 22.8125 142.333 23.1236C143.033 23.4152 143.792 23.5611 144.608 23.5611Z" fill="white"/>
<path d="M165.709 28.1403C164.056 28.1403 162.423 27.8389 160.809 27.2361C159.195 26.6333 157.756 25.7972 156.492 24.7278L159.293 21.0819C160.537 22.093 161.684 22.8222 162.734 23.2694C163.784 23.6972 164.902 23.9111 166.088 23.9111C166.866 23.9111 167.527 23.8333 168.072 23.6777C168.616 23.5222 169.034 23.2986 169.326 23.0069C169.618 22.6958 169.764 22.3361 169.764 21.9277C169.764 21.3638 169.55 20.9263 169.122 20.6152C168.694 20.3041 167.965 20.061 166.934 19.886L162.443 19.0985C160.79 18.8068 159.516 18.1749 158.622 17.2026C157.727 16.2304 157.28 14.9957 157.28 13.4984C157.28 12.1762 157.611 11.0387 158.272 10.0859C158.952 9.13307 159.915 8.40389 161.159 7.89833C162.423 7.39276 163.92 7.13998 165.651 7.13998C167.168 7.13998 168.694 7.40249 170.23 7.92749C171.766 8.43306 173.098 9.14279 174.226 10.0567L171.572 13.7609C169.472 12.147 167.382 11.34 165.301 11.34C164.62 11.34 164.027 11.4178 163.522 11.5734C163.036 11.7095 162.656 11.9137 162.384 12.1859C162.131 12.4387 162.005 12.7498 162.005 13.1192C162.005 13.6248 162.19 14.0137 162.559 14.2859C162.948 14.5582 163.57 14.772 164.426 14.9276L168.655 15.6276C170.619 15.9387 172.107 16.5901 173.118 17.5818C174.148 18.5735 174.664 19.8568 174.664 21.4319C174.664 22.8125 174.304 24.0083 173.584 25.0194C172.865 26.0111 171.834 26.7792 170.493 27.3236C169.151 27.8681 167.557 28.1403 165.709 28.1403Z" fill="white"/>
<path d="M176.955 27.8486V7.43165H181.972V27.8486H176.955Z" fill="white"/>
<path d="M190.87 27.8486V11.8651H184.191V7.43165H202.566V11.8651H195.887V27.8486H190.87Z" fill="white"/>
<path d="M204.783 27.8486V7.43165H220.883V11.7776H209.8V15.4526H217.121V19.6527H209.8V23.5027H221V27.8486H204.783Z" fill="white"/>
</svg>
