<svg width="129" height="46" viewBox="0 0 129 46" fill="none" xmlns="http://www.w3.org/2000/svg">
<path d="M4.99863 41.2691C3.46585 40.1232 2.22059 38.6365 1.36118 36.9265C0.501765 35.217 0.0518022 33.3303 0.0468398 31.4167C-0.0508896 26.0401 0.0336742 20.6599 0.0397506 15.2808C0.0427889 12.7428 1.37201 10.9776 3.34685 9.62107C7.54972 6.73071 14.9161 6.76413 19.0947 9.67626C21.3081 11.2177 22.4919 13.2978 22.4185 16.0601C22.3785 17.5751 22.4114 19.0922 22.4114 20.6725H12.0248V13.827H7.84848V15.0544C7.84848 19.7849 7.84848 24.5159 7.84848 29.2469C7.84848 35.3563 10.7502 39.4756 16.5021 41.4849C20.3546 42.8348 24.5225 43.0014 28.4701 41.9634C28.8003 41.8803 29.1289 41.7902 29.4606 41.7158C29.5229 41.7021 29.5983 41.7487 29.7806 41.7983C28.1673 43.3159 26.1971 44.4005 24.0526 44.952C22.0119 45.5282 19.9034 45.827 17.7832 45.8401C13.2239 45.8401 8.94705 44.3433 4.99863 41.2691ZM15.2711 36.1214C14.2249 35.4464 13.3737 34.5091 12.8026 33.4027C12.2314 32.2963 11.9605 31.0597 12.0157 29.8161C12.0526 28.297 12.0227 26.7778 12.0227 25.1777H22.3892V32.0076H26.5844V30.8187C26.5844 26.0112 26.4948 21.2022 26.6077 16.3978C26.7434 10.7052 23.9427 7.02238 19.0066 4.81055C14.7733 2.91217 10.3532 2.79267 5.88073 3.89909C5.5207 3.98821 5.15966 4.07024 4.46593 4.23431C5.93223 2.7788 7.73369 1.7059 9.71218 1.11C16.853 -1.10587 23.4697 -0.0278104 29.414 4.55737C30.9519 5.6968 32.2026 7.17991 33.066 8.88835C33.9293 10.5968 34.3815 12.4834 34.3866 14.3977C34.4848 19.8128 34.3972 25.2309 34.3866 30.648C34.382 33.147 33.0422 34.8691 31.1134 36.2085C29.0292 37.6557 26.1576 38.3752 23.2814 38.3757C20.3363 38.3762 17.3862 37.6233 15.2711 36.1214Z" fill="#8F97F1"/>
<path d="M53.0891 30.6354H49.8802V24.083H43.8676V30.6354H40.6481V15.4532H43.8676V21.4038H49.8802V15.4532H53.0891V30.6354ZM66.2253 30.6354L65.1245 27.0214H59.5899L58.489 30.6354H55.0204L60.3788 15.3909H64.3148L69.694 30.6354H66.2253ZM64.3563 24.3215L63.2555 20.7911C63.1861 20.5556 63.0929 20.2543 62.9749 19.8874C62.864 19.5135 62.7501 19.1362 62.6321 18.7555C62.5217 18.3678 62.4316 18.0321 62.3622 17.7482C62.2934 18.0321 62.1961 18.3851 62.0716 18.8074C61.9541 19.2228 61.8397 19.6174 61.7288 19.9912C61.6184 20.3652 61.5384 20.6316 61.4903 20.7911L60.3995 24.3215H64.3563ZM76.0388 15.4532C77.4166 15.4532 78.5519 15.6194 79.4451 15.9517C80.3449 16.284 81.0128 16.7859 81.4493 17.4574C81.8853 18.129 82.1036 18.977 82.1036 20.0016C82.1036 20.6938 81.9719 21.2995 81.7086 21.819C81.4458 22.338 81.0994 22.7775 80.6705 23.1376C80.2411 23.4976 79.7773 23.7918 79.2785 24.0207L83.7442 30.6354H80.1718L76.5477 24.8096H74.8341V30.6354H71.6151V15.4532H76.0388ZM75.8104 18.0909H74.8341V22.1927H75.8727C76.9386 22.1927 77.7002 22.0165 78.1574 21.663C78.6213 21.303 78.8532 20.7769 78.8532 20.0847C78.8532 19.3647 78.6035 18.8524 78.1053 18.5478C77.6136 18.2432 76.849 18.0909 75.8104 18.0909ZM85.6547 15.4532H90.3797C92.4016 15.4532 93.9314 15.737 94.9699 16.3047C96.0085 16.8724 96.5275 17.8694 96.5275 19.2955C96.5275 19.8701 96.4338 20.3895 96.247 20.8533C96.0672 21.3172 95.8039 21.698 95.4581 21.9957C95.1117 22.293 94.6894 22.4869 94.1911 22.577V22.6808C94.6965 22.7846 95.1532 22.9649 95.5619 23.2206C95.97 23.4703 96.2956 23.8369 96.5376 24.3215C96.7873 24.7995 96.9119 25.436 96.9119 26.2325C96.9119 27.1531 96.6865 27.9425 96.2369 28.5998C95.7867 29.2576 95.1431 29.7629 94.3051 30.1164C93.4746 30.4622 92.4847 30.6354 91.3352 30.6354H85.6547V15.4532ZM88.8742 21.4661H90.7433C91.678 21.4661 92.3251 21.3202 92.6852 21.0296C93.0452 20.7318 93.225 20.2958 93.225 19.7213C93.225 19.1397 93.0108 18.7243 92.5814 18.4751C92.1591 18.219 91.4876 18.0909 90.5665 18.0909H88.8742V21.4661ZM88.8742 24.0207V27.977H90.9716C91.9408 27.977 92.6158 27.7901 92.9966 27.4164C93.3774 27.0422 93.5678 26.5404 93.5678 25.9105C93.5678 25.5368 93.4847 25.2076 93.3186 24.9241C93.1526 24.64 92.872 24.4187 92.4776 24.2592C92.0897 24.1002 91.5534 24.0207 90.8678 24.0207H88.8742ZM113.724 23.0236C113.724 24.1934 113.579 25.2598 113.288 26.2219C112.997 27.1774 112.554 28.0013 111.959 28.6935C111.37 29.3857 110.623 29.9189 109.716 30.2926C108.809 30.6597 107.736 30.843 106.496 30.843C105.257 30.843 104.184 30.6597 103.277 30.2926C102.371 29.9189 101.62 29.3857 101.024 28.6935C100.436 28.0013 99.9962 27.1739 99.705 26.2118C99.4143 25.2491 99.269 24.1797 99.269 23.0029C99.269 21.4311 99.5252 20.0639 100.038 18.9009C100.557 17.7309 101.353 16.824 102.426 16.1801C103.499 15.5363 104.863 15.2144 106.517 15.2144C108.165 15.2144 109.518 15.5363 110.578 16.1801C111.644 16.824 112.433 17.7309 112.946 18.9009C113.465 20.071 113.724 21.4453 113.724 23.0236ZM102.644 23.0236C102.644 24.083 102.776 24.9965 103.038 25.7651C103.309 26.5267 103.728 27.1151 104.295 27.5303C104.863 27.939 105.597 28.143 106.496 28.143C107.41 28.143 108.151 27.939 108.719 27.5303C109.287 27.1151 109.699 26.5267 109.955 25.7651C110.218 24.9965 110.349 24.083 110.349 23.0236C110.349 21.4311 110.052 20.1784 109.456 19.2643C108.861 18.3505 107.881 17.8936 106.517 17.8936C105.61 17.8936 104.87 18.1013 104.295 18.5166C103.728 18.9251 103.309 19.5135 103.038 20.2822C102.776 21.0437 102.644 21.9572 102.644 23.0236ZM121.295 15.4532C122.672 15.4532 123.808 15.6194 124.701 15.9517C125.601 16.284 126.269 16.7859 126.705 17.4574C127.141 18.129 127.359 18.977 127.359 20.0016C127.359 20.6938 127.228 21.2995 126.964 21.819C126.702 22.338 126.355 22.7775 125.926 23.1376C125.497 23.4976 125.033 23.7918 124.535 24.0207L129 30.6354H125.428L121.803 24.8096H120.09V30.6354H116.871V15.4532H121.295ZM121.066 18.0909H120.09V22.1927H121.128C122.194 22.1927 122.956 22.0165 123.413 21.663C123.877 21.303 124.109 20.7769 124.109 20.0847C124.109 19.3647 123.86 18.8524 123.361 18.5478C122.869 18.2432 122.105 18.0909 121.066 18.0909Z" fill="white"/>
</svg>
