<svg xmlns="http://www.w3.org/2000/svg" width="560" height="160" viewBox="0 0 560 160"><g transform="translate(-1027 8686)"><path d="M-5-20H555V140H-5Z" transform="translate(1032 -8666)" fill="#2a1b5b" opacity="0"/><g transform="translate(1058 -8656)"><g transform="translate(0)"><path d="M-532.083,621.386a18.413,18.413,0,0,0-6.855-2.868,21.207,21.207,0,0,0-4.666-.542,20.048,20.048,0,0,0-9.355,2.4l-2.645-5.211-8.52,17.9,19.743,4.182-2.575-5.068a7.039,7.039,0,0,1,1.045-.478,7.217,7.217,0,0,1,9.252,4.334h0a7.177,7.177,0,0,1,.327,2.6q.015,27.947-.016,55.893a7.157,7.157,0,0,1-.027.828,7.031,7.031,0,0,1-7.631,6.377h0l-.673-.032a8.584,8.584,0,0,1-4.3-2.586q-4.437-4.536-8.918-9.028-8.016-8.017-16.045-16.02a7.656,7.656,0,0,0-.726-.572.8.8,0,0,1,.772-.283,1.04,1.04,0,0,0,.158.009h6.454q4.608.006,9.219-.009a7.37,7.37,0,0,0,7.674-7.053,7.387,7.387,0,0,0-2.454-5.823l-13.948-13.987q-8.753-8.775-17.506-17.543c-.193-.192-.4-.375-.6-.559-2.561-2.563-4.9-5.366-8.023-7.315a20.442,20.442,0,0,0-28.128,6.838,20.486,20.486,0,0,0-1.895,4.056,23.086,23.086,0,0,0-.88,4.55,69.853,69.853,0,0,0-.161,8.1c-.021,16.527,0,33.054-.021,49.581a21,21,0,0,0,2.352,10.215,19.922,19.922,0,0,0,11.3,9.664,20.931,20.931,0,0,0,6.914,1.224,20.425,20.425,0,0,0,10.581-3.08,18.132,18.132,0,0,0,3.6-2.927c.742-.758,1.467-1.534,2.221-2.28l3.9,3.917,2.557-19.49-19.883,2.119,4.134,4.145a24.58,24.58,0,0,1-2.85,2.724,6.823,6.823,0,0,1-6.231,1.224,6.934,6.934,0,0,1-5.233-6.489c-.02-.328-.032-.653-.032-.978V639.06a7.374,7.374,0,0,1,2.018-5.622l.023-.024a7.037,7.037,0,0,1,9.965-.053c1.334,1.282,2.638,2.6,3.956,3.9.2.219.4.443.611.656q10.545,10.586,21.106,21.165c.193.191.409.358.654.57a1.038,1.038,0,0,1-.855.192h-5.561q-4.938-.006-9.889.015a7.746,7.746,0,0,0-6.22,2.571,7.326,7.326,0,0,0-.213,9.283,13.482,13.482,0,0,0,1.164,1.275q15.084,15.125,30.175,30.249c2.013,2.015,3.995,4.049,6.032,6.035a19.766,19.766,0,0,0,11.339,5.653h0a19.317,19.317,0,0,0,10.641-1.3,19.88,19.88,0,0,0,11.935-13.279,20.927,20.927,0,0,0,.8-5.94q0-27.757,0-55.514A20.127,20.127,0,0,0-532.083,621.386Z" transform="translate(624.036 -615.17)" fill="#3276ff"/><path d="M-555.618,614.037l2.876,5.666a20.628,20.628,0,0,1,9.134-2.227h.006a21.738,21.738,0,0,1,4.768.553,18.809,18.809,0,0,1,7.028,2.941,20.64,20.64,0,0,1,7,7.743A20.7,20.7,0,0,1-522.49,638.9c0,18.414,0,37.088,0,55.5a21.411,21.411,0,0,1-.818,6.077,20.51,20.51,0,0,1-4.506,8.258,20.451,20.451,0,0,1-7.722,5.35,19.708,19.708,0,0,1-7.765,1.584,19.884,19.884,0,0,1-3.139-.25,20.215,20.215,0,0,1-6.283-1.94,20.24,20.24,0,0,1-5.334-3.852c-1.373-1.339-2.743-2.721-4.068-4.058-.644-.649-1.309-1.321-1.967-1.979-10.1-10.122-20.252-20.3-30.172-30.246a14.032,14.032,0,0,1-1.2-1.318l0,0a7.842,7.842,0,0,1-1.658-5,7.843,7.843,0,0,1,1.886-4.917l.007-.008a8.256,8.256,0,0,1,6.146-2.751c.153,0,.307,0,.46.013,2.555-.011,5.143-.016,7.694-.016h7.5c-6.692-6.7-13.761-13.792-21.016-21.075-.187-.19-.364-.384-.535-.572l-.083-.091q-.6-.591-1.194-1.184c-.9-.891-1.823-1.812-2.748-2.7l-.006-.005a6.5,6.5,0,0,0-4.6-1.9,6.494,6.494,0,0,0-4.651,1.943l-.02.021a6.886,6.886,0,0,0-1.881,5.24v55.023c0,.295.01.6.031.948v.013a6.464,6.464,0,0,0,4.855,6.021l.021.006a6.31,6.31,0,0,0,1.807.264,6.348,6.348,0,0,0,3.967-1.4,24.145,24.145,0,0,0,2.473-2.318l-4.535-4.548,21.553-2.3-2.772,21.128-4.264-4.283c-.348.352-.693.711-1.03,1.061-.271.282-.552.573-.831.858a18.643,18.643,0,0,1-3.7,3.005,20.919,20.919,0,0,1-10.839,3.155h-.008a21.376,21.376,0,0,1-7.075-1.252,20.316,20.316,0,0,1-6.744-3.829A20.348,20.348,0,0,1-622.1,704.5a21.551,21.551,0,0,1-2.409-10.453c.01-8.261.01-16.661.01-24.784s0-16.521.01-24.781a70.622,70.622,0,0,1,.163-8.144v-.006a23.641,23.641,0,0,1,.9-4.649l.005-.017a21.023,21.023,0,0,1,1.941-4.155,20.982,20.982,0,0,1,7.791-7.474,21.068,21.068,0,0,1,10.131-2.6,20.9,20.9,0,0,1,10.893,3.073,34.613,34.613,0,0,1,6.456,5.682c.539.561,1.1,1.141,1.653,1.7l.152.139c.15.137.305.278.454.427,6.207,6.218,11.933,11.956,17.507,17.544l13.938,13.977a7.858,7.858,0,0,1,2.609,6.207,7.849,7.849,0,0,1-2.424,5.356,7.816,7.816,0,0,1-5.427,2.183c-.11,0-.222,0-.332-.007-2.189.007-4.4.011-6.581.011l-2.629,0h-6.3c5.529,5.511,10.924,10.9,16.037,16.012,2.994,3,6,6.04,8.922,9.031l.014.015a8.057,8.057,0,0,0,4,2.424l.644.031c.2.018.4.027.6.027a6.5,6.5,0,0,0,6.491-5.951,6.674,6.674,0,0,0,.025-.77v-.013c.02-18.984.026-37.789.016-55.893v-.029a6.65,6.65,0,0,0-.3-2.392l0,0a6.744,6.744,0,0,0-6.318-4.44,6.688,6.688,0,0,0-2.293.406q-.275.1-.545.225l2.823,5.557-21.386-4.53Zm2.446,7.027-2.417-4.761-7.81,16.413,18.1,3.834-2.319-4.565.419-.234a7.568,7.568,0,0,1,1.119-.512,7.683,7.683,0,0,1,2.633-.466,7.746,7.746,0,0,1,7.219,4.994l.009.009.038.117a7.647,7.647,0,0,1,.351,2.761c.01,18.1,0,36.9-.016,55.873a7.679,7.679,0,0,1-.029.879,7.525,7.525,0,0,1-2.432,4.9,7.5,7.5,0,0,1-5.055,1.962c-.224,0-.451-.01-.676-.03l-.712-.034-.048-.012a9.052,9.052,0,0,1-4.543-2.729c-2.922-2.987-5.918-6.021-8.907-9.017-5.112-5.113-10.506-10.5-16.034-16.009a7.181,7.181,0,0,0-.668-.525l-.444-.308.341-.419a1.3,1.3,0,0,1,1.012-.481,1.312,1.312,0,0,1,.224.019.547.547,0,0,0,.063,0h6.474l2.628,0c2.181,0,4.4,0,6.589-.011h.023c.1,0,.2.006.3.006a6.854,6.854,0,0,0,6.852-6.582,6.862,6.862,0,0,0-2.288-5.429l-.021-.02-13.948-13.987c-5.574-5.588-11.3-11.326-17.506-17.543-.132-.132-.273-.26-.421-.395l-.164-.15-.015-.014c-.567-.567-1.13-1.154-1.674-1.721a33.857,33.857,0,0,0-6.26-5.523,19.893,19.893,0,0,0-10.368-2.924,19.834,19.834,0,0,0-17.068,9.6,20.024,20.024,0,0,0-1.846,3.949,22.636,22.636,0,0,0-.858,4.441,69.623,69.623,0,0,0-.16,8.034v.02c-.01,8.263-.01,16.665-.01,24.79s0,16.527-.01,24.791v.012a20.547,20.547,0,0,0,2.3,9.972,19.334,19.334,0,0,0,11.016,9.42l.009,0a20.381,20.381,0,0,0,6.745,1.2,19.921,19.921,0,0,0,10.318-3,17.644,17.644,0,0,0,3.507-2.847l.005-.005c.277-.283.556-.573.827-.855.454-.472.924-.961,1.4-1.431l.354-.35,3.534,3.549,2.342-17.852-18.213,1.941,3.729,3.74-.314.352a25.16,25.16,0,0,1-2.908,2.779,7.353,7.353,0,0,1-4.6,1.622,7.311,7.311,0,0,1-2.083-.3,7.368,7.368,0,0,1-3.956-2.537,7.387,7.387,0,0,1-1.644-4.411c-.022-.361-.033-.688-.033-1V639.078a7.888,7.888,0,0,1,2.156-5.984l.029-.03a7.487,7.487,0,0,1,5.365-2.243A7.494,7.494,0,0,1-598.315,633c.93.893,1.858,1.817,2.757,2.709q.6.6,1.2,1.191l.018.019.092.1c.164.18.333.367.5.54,7.286,7.315,14.387,14.436,21.1,21.164.113.112.24.219.388.343.077.064.156.131.239.2l.462.4-.484.373a1.554,1.554,0,0,1-1.209.3h-7.695c-2.554,0-5.146.005-7.7.016h-.031c-.139-.008-.279-.012-.418-.012a7.256,7.256,0,0,0-5.4,2.414,6.841,6.841,0,0,0-.2,8.643,13.018,13.018,0,0,0,1.119,1.225l.007.007c9.921,9.948,20.073,20.126,30.175,30.249.659.66,1.325,1.332,1.969,1.982,1.323,1.335,2.69,2.715,4.058,4.048l.006.006a19.374,19.374,0,0,0,11.052,5.51l.012,0a18.88,18.88,0,0,0,2.986.238,18.714,18.714,0,0,0,7.379-1.507l.014-.006a19.462,19.462,0,0,0,11.635-12.945v-.005a20.411,20.411,0,0,0,.781-5.8V694.4c0-18.419,0-37.1,0-55.514v-.016a19.739,19.739,0,0,0-8.867-17.069l-.008-.006a17.815,17.815,0,0,0-6.669-2.79l-.016,0a20.742,20.742,0,0,0-4.553-.529,19.619,19.619,0,0,0-9.118,2.345Z" transform="translate(624.036 -615.17)" fill="rgba(0,0,0,0)"/><g transform="translate(116.376 24.821)"><path d="M-382.714,668l-21.2-27.534h-8.19v46.71h10.44V659.586l21.2,27.586h8.253v-46.71h-10.5Z" transform="translate(505.039 -639.894)" fill="#fff"/><path d="M-371.71,687.672h-9l-20.45-26.615v26.615H-412.6v-47.71h8.937l20.45,26.565V639.962h11.5Zm-8.507-1h7.507v-45.71h-9.5v28.5l-21.942-28.5H-411.6v45.71h9.44V658.115Z" transform="translate(505.039 -639.894)" fill="rgba(0,0,0,0)"/><path d="M-329.96,662.059a51.373,51.373,0,0,0-9.269-2.85,23.871,23.871,0,0,1-6.892-2.363,2.9,2.9,0,0,1-1.422-2.66,3.964,3.964,0,0,1,1.739-3.415,10,10,0,0,1,5.876-1.476h.008a18.731,18.731,0,0,1,11.934,4.3l1.507,1.25,3.947-8.626-.844-.737a20.352,20.352,0,0,0-7.332-4.105,29.179,29.179,0,0,0-9.187-1.478,22.958,22.958,0,0,0-9.473,1.821,15.393,15.393,0,0,0-6.606,5.271,13.134,13.134,0,0,0-2.375,7.678,11.738,11.738,0,0,0,2.042,7.109,14.031,14.031,0,0,0,5.758,4.438,46.24,46.24,0,0,0,9.184,2.823,27.362,27.362,0,0,1,7.124,2.343,2.677,2.677,0,0,1,1.442,2.484,3.482,3.482,0,0,1-1.675,3.08,11.361,11.361,0,0,1-6.162,1.4l-.1,0a22.949,22.949,0,0,1-7.122-1.043,20.288,20.288,0,0,1-6.208-3.291l-1.5-1.164-3.945,8.621.923.73a23.215,23.215,0,0,0,7.935,4.1,32.388,32.388,0,0,0,9.851,1.427q.277.006.555.006a26.163,26.163,0,0,0,9.236-1.679,14.567,14.567,0,0,0,6.726-5.076,12.925,12.925,0,0,0,2.344-7.65,11,11,0,0,0-2.169-6.964A14.846,14.846,0,0,0-329.96,662.059Z" transform="translate(505.039 -639.894)" fill="#fff"/><path d="M-340.388,639.4c.165,0,.333,0,.5.005a29.493,29.493,0,0,1,9.335,1.5,20.813,20.813,0,0,1,7.507,4.2l1.125.983-4.374,9.559-2.009-1.667a18.231,18.231,0,0,0-11.615-4.189h-.035c-.187-.01-.377-.016-.562-.016a9.4,9.4,0,0,0-5.017,1.414,3.487,3.487,0,0,0-1.509,2.977v.032a2.415,2.415,0,0,0,1.165,2.208,23.276,23.276,0,0,0,6.738,2.308l.013,0a51.984,51.984,0,0,1,9.359,2.878,15.331,15.331,0,0,1,6.048,4.451l.016.021a11.563,11.563,0,0,1,2.267,7.265,13.353,13.353,0,0,1-2.434,7.931l-.007.01a15.1,15.1,0,0,1-6.956,5.249,26.658,26.658,0,0,1-9.409,1.71c-.184,0-.372,0-.557-.006l-.39,0a33.1,33.1,0,0,1-9.6-1.45,23.693,23.693,0,0,1-8.1-4.192l-1.23-.973,4.371-9.552,1.995,1.552a19.788,19.788,0,0,0,6.052,3.209,22.483,22.483,0,0,0,6.66,1.022l.3,0h.011l.126,0c.211.012.424.018.635.018a10.9,10.9,0,0,0,5.25-1.35,3,3,0,0,0,1.424-2.633v-.024a2.179,2.179,0,0,0-1.166-2.026,26.824,26.824,0,0,0-6.99-2.3h-.007a46.792,46.792,0,0,1-9.283-2.854,14.516,14.516,0,0,1-5.96-4.595l-.017-.024a12.3,12.3,0,0,1-2.127-7.395,13.567,13.567,0,0,1,2.465-7.957l0-.005a15.91,15.91,0,0,1,6.82-5.442A23.453,23.453,0,0,1-340.388,639.4Zm17.246,6.956-.563-.492a19.82,19.82,0,0,0-7.152-4l-.009,0a28.5,28.5,0,0,0-9.029-1.452h-.011a22.482,22.482,0,0,0-9.268,1.782,14.912,14.912,0,0,0-6.392,5.1,12.573,12.573,0,0,0-2.284,7.383v.027a11.307,11.307,0,0,0,1.949,6.8,13.519,13.519,0,0,0,5.543,4.268,45.8,45.8,0,0,0,9.086,2.794,27.827,27.827,0,0,1,7.251,2.385l.006,0a3.17,3.17,0,0,1,1.716,2.929,3.962,3.962,0,0,1-1.92,3.511l-.013.008a11.9,11.9,0,0,1-5.741,1.478c-.227,0-.458-.007-.685-.02l-.083,0-.307,0a23.481,23.481,0,0,1-6.959-1.068l-.006,0a20.785,20.785,0,0,1-6.361-3.372l-1-.776-3.519,7.69.615.487a22.7,22.7,0,0,0,7.765,4.017h0a32.106,32.106,0,0,0,9.313,1.408l.386,0h.017c.181,0,.364.006.544.006a25.666,25.666,0,0,0,9.06-1.647,14.1,14.1,0,0,0,6.5-4.9,12.359,12.359,0,0,0,2.251-7.349v-.03a10.558,10.558,0,0,0-2.064-6.637,14.332,14.332,0,0,0-5.647-4.151,50.993,50.993,0,0,0-9.176-2.822,24.275,24.275,0,0,1-7.03-2.412l-.018-.01a3.4,3.4,0,0,1-1.671-3.091,4.446,4.446,0,0,1,1.964-3.834l.012-.008a10.39,10.39,0,0,1,5.549-1.567c.2,0,.4.005.6.016a19.233,19.233,0,0,1,12.248,4.419l1,.833Z" transform="translate(505.039 -639.894)" fill="rgba(0,0,0,0)"/><path d="M-457.3,687.172h32.264v-9.324h-21.452v-9.776h20.212v-9.258h-20.212v-9.027h21.452v-9.324H-457.3Z" transform="translate(505.039 -639.894)" fill="#fff"/><path d="M-424.534,687.672H-457.8v-47.71h33.264v10.324h-21.452v8.027h20.212v10.258h-20.212v8.776h21.452Zm-32.264-1h31.264v-8.324h-21.452V667.571h20.212v-8.258h-20.212V649.286h21.452v-8.324H-456.8Z" transform="translate(505.039 -639.894)" fill="rgba(0,0,0,0)"/><path d="M-470.539,648.209v-7.747h-34.5v9.382H-484l-21.034,29.521v7.808h35.178v-9.386H-491.7Z" transform="translate(505.039 -639.894)" fill="#fff"/><path d="M-505.539,639.962h35.5v8.407l-20.686,28.917h21.364v10.386h-36.178V679.2l20.564-28.861h-20.564Zm34.5,1h-33.5v8.382h21.5l-21.5,30.18v7.148h34.178v-8.386h-22.309l21.631-30.238Z" transform="translate(505.039 -639.894)" fill="rgba(0,0,0,0)"/><path d="M-287.395,649.414a16.142,16.142,0,0,1,5.645.982,20.338,20.338,0,0,1,5.486,3.206l1.506,1.229,3.927-8.6-.811-.736a19.788,19.788,0,0,0-7.091-4.151,26.958,26.958,0,0,0-8.762-1.447,23.773,23.773,0,0,0-12.031,2.957,19.89,19.89,0,0,0-7.985,8.459,27.238,27.238,0,0,0-2.723,12.438,27.531,27.531,0,0,0,2.727,12.538,19.862,19.862,0,0,0,8,8.493,23.735,23.735,0,0,0,11.456,2.95c.177,0,.356,0,.534-.006a26.745,26.745,0,0,0,8.767-1.439,19.8,19.8,0,0,0,7.107-4.158l.812-.737-3.931-8.593-1.505,1.23a20.331,20.331,0,0,1-5.459,3.2,16.1,16.1,0,0,1-5.575.992c-3.833,0-6.692-1.143-8.723-3.557-2.05-2.438-3.089-6.1-3.089-10.876,0-4.739,1.043-8.378,3.093-10.816C-294.009,650.577-291.19,649.414-287.395,649.414Z" transform="translate(505.039 -639.894)" fill="#fff"/><path d="M-288.029,639.394c.179,0,.361,0,.54.006a27.4,27.4,0,0,1,8.917,1.473,20.268,20.268,0,0,1,7.267,4.254l1.082.982-4.348,9.518-2.008-1.638a19.841,19.841,0,0,0-5.347-3.126,15.53,15.53,0,0,0-5.383-.95h-.082c-3.639,0-6.335,1.105-8.246,3.379-1.973,2.346-2.974,5.877-2.976,10.494,0,4.658,1,8.209,2.972,10.554,1.911,2.272,4.639,3.377,8.341,3.379a15.619,15.619,0,0,0,5.4-.959,19.787,19.787,0,0,0,5.32-3.116l2.007-1.64,4.353,9.515-1.083.983a20.294,20.294,0,0,1-7.283,4.261,27.413,27.413,0,0,1-8.819,1.466h-.1c-.18,0-.361.006-.539.006a24.276,24.276,0,0,1-11.7-3.012l-.007,0a20.377,20.377,0,0,1-8.2-8.706,28.05,28.05,0,0,1-2.779-12.759,27.668,27.668,0,0,1,2.773-12.656,20.4,20.4,0,0,1,8.187-8.675l.006,0A24.341,24.341,0,0,1-288.029,639.394Zm16.591,6.965-.54-.49a19.273,19.273,0,0,0-6.913-4.047l-.005,0a26.4,26.4,0,0,0-8.6-1.42h-.011c-.173,0-.349-.006-.523-.006a23.337,23.337,0,0,0-11.252,2.9,19.4,19.4,0,0,0-7.782,8.246,26.657,26.657,0,0,0-2.671,12.2v.023a27.041,27.041,0,0,0,2.677,12.309,19.377,19.377,0,0,0,7.793,8.274,23.274,23.274,0,0,0,11.211,2.886c.173,0,.349,0,.523-.006h.119a26.4,26.4,0,0,0,8.5-1.412l0,0a19.3,19.3,0,0,0,6.929-4.054l.542-.492-3.509-7.671-1,.82a20.784,20.784,0,0,1-5.593,3.275l-.01,0a16.617,16.617,0,0,1-5.747,1.023c-4.014,0-6.993-1.224-9.106-3.735-2.128-2.53-3.206-6.3-3.206-11.2,0-4.86,1.082-8.607,3.21-11.138,2.112-2.513,5.059-3.735,9.009-3.735h.085a16.528,16.528,0,0,1,5.733,1.013l.009,0a20.837,20.837,0,0,1,5.621,3.285l1,.819Z" transform="translate(505.039 -639.894)" fill="rgba(0,0,0,0)"/><path d="M-122.415,649.786v-9.324h-32.262v46.71h32.262v-9.324h-21.45v-9.776h20.212v-9.258h-20.212v-9.027Z" transform="translate(505.039 -639.894)" fill="#fff"/><path d="M-155.176,639.962h33.262v10.324h-21.45v8.027h20.212v10.258h-20.212v8.776h21.45v10.324h-33.262Zm32.262,1h-31.262v45.71h31.262v-8.324h-21.45V667.571h20.212v-8.258h-20.212V649.286h21.45Z" transform="translate(505.039 -639.894)" fill="rgba(0,0,0,0)"/><path d="M-243.362,640.462l-21.138,46.71h11.374l4.4-10.231h19.295l4.4,10.231h11.249l-21.136-46.71Zm9.974,27.28h-11.445l5.723-13.3Z" transform="translate(505.039 -639.894)" fill="#fff"/><path d="M-243.685,639.962h9.09l21.588,47.71h-12.353l-4.4-10.231H-248.4l-4.4,10.231h-12.478Zm8.445,1h-7.8l-20.685,45.71h10.27l4.4-10.231H-229.1l4.4,10.231h10.145Zm-3.87,12.211,6.481,15.069h-12.964Zm4.963,14.069L-239.11,655.7l-4.964,11.539Z" transform="translate(505.039 -639.894)" fill="rgba(0,0,0,0)"/><path d="M-183.676,640.462h-20.6v46.71h11V670.181h9.6c5.032,0,9.043-1.32,11.918-3.922,2.92-2.641,4.4-6.331,4.4-10.97s-1.482-8.325-4.4-10.944C-174.638,641.769-178.646,640.462-183.676,640.462Zm5.746,14.892c0,2.65-.767,5.692-6.746,5.692h-8.6V649.662h8.6c2.386,0,4.142.472,5.219,1.4C-178.43,651.951-177.93,653.354-177.93,655.354Z" transform="translate(505.039 -639.894)" fill="#fff"/><path d="M-204.776,639.962h21.1c5.156,0,9.277,1.349,12.247,4.011,3.033,2.718,4.571,6.525,4.571,11.316s-1.536,8.6-4.565,11.341c-2.97,2.688-7.093,4.051-12.253,4.051h-9.1v16.991h-12Zm21.1,29.719c4.9,0,8.8-1.276,11.582-3.793,2.811-2.542,4.236-6.108,4.236-10.6s-1.426-8.052-4.239-10.572c-2.781-2.492-6.677-3.755-11.579-3.755h-20.1v45.71h10V669.681Zm-10.1-20.519h9.1c2.509,0,4.375.513,5.546,1.524,1.144.988,1.7,2.515,1.7,4.668,0,2.658-.751,6.192-7.246,6.192h-9.1Zm9.1,11.384c2.516,0,4.278-.565,5.236-1.678a5.085,5.085,0,0,0,1.01-3.514c0-1.845-.443-3.125-1.354-3.912-.984-.85-2.63-1.28-4.892-1.28h-8.1v10.384Z" transform="translate(505.039 -639.894)" fill="rgba(0,0,0,0)"/></g></g></g></g></svg>