<svg width="172" height="228" viewBox="0 0 172 228" fill="none" xmlns="http://www.w3.org/2000/svg">
<path d="M24.8407 205.285C17.2235 199.59 11.0352 192.202 6.76436 183.704C2.49352 175.209 0.257431 165.833 0.23277 156.323C-0.252896 129.604 0.167344 102.867 0.197541 76.1357C0.212639 63.5235 6.81819 54.7513 16.6322 48.0099C37.5183 33.6462 74.1257 33.8123 94.891 48.2841C105.89 55.9441 111.774 66.2815 111.409 80.0084C111.21 87.5375 111.373 95.0766 111.373 102.93H59.757V68.9111H39.003V75.0109C39.003 98.5191 39.003 122.03 39.003 145.54C39.003 175.901 53.4232 196.372 82.0071 206.357C101.152 213.065 121.864 213.893 141.482 208.735C143.123 208.322 144.756 207.874 146.404 207.504C146.714 207.436 147.089 207.668 147.995 207.914C139.977 215.456 130.186 220.846 119.529 223.587C109.388 226.45 98.9097 227.935 88.3736 228C65.7159 228 44.4623 220.562 24.8407 205.285ZM75.8897 179.703C70.6908 176.349 66.4607 171.691 63.6222 166.192C60.7837 160.694 59.4374 154.549 59.7117 148.369C59.8954 140.82 59.7469 133.27 59.7469 125.319H111.263V159.26H132.111V153.351C132.111 129.461 131.666 105.562 132.227 81.6869C132.901 53.3975 118.983 35.0957 94.4532 24.104C73.4161 14.67 51.4504 14.0762 29.2243 19.5745C27.4351 20.0174 25.6409 20.425 22.1934 21.2404C29.4802 14.0072 38.4325 8.67546 48.2646 5.71416C83.7509 -5.29762 116.633 0.0597943 146.173 22.8458C153.815 28.5082 160.031 35.8785 164.321 44.3686C168.612 52.859 170.859 62.2343 170.884 71.7471C171.372 98.6575 170.937 125.583 170.884 152.503C170.861 164.922 164.203 173.48 154.618 180.136C144.26 187.328 129.99 190.904 115.697 190.906C101.061 190.909 86.4007 187.167 75.8897 179.703Z" fill="white"/>
</svg>
