<svg width="172" height="228" viewBox="0 0 172 228" fill="none" xmlns="http://www.w3.org/2000/svg">
<path d="M24.8407 205.087C17.2235 199.392 11.0352 192.004 6.76436 183.506C2.49352 175.011 0.257431 165.635 0.23277 156.125C-0.252896 129.406 0.167344 102.669 0.197541 75.9377C0.212639 63.3255 6.81819 54.5533 16.6322 47.8119C37.5183 33.4482 74.1257 33.6143 94.891 48.0861C105.89 55.7461 111.774 66.0835 111.409 79.8104C111.21 87.3395 111.373 94.8786 111.373 102.732H59.757V68.7131H39.003V74.8129C39.003 98.3211 39.003 121.832 39.003 145.342C39.003 175.703 53.4232 196.174 82.0071 206.159C101.152 212.867 121.864 213.695 141.482 208.537C143.123 208.124 144.756 207.676 146.404 207.306C146.714 207.238 147.089 207.47 147.995 207.716C139.977 215.258 130.186 220.648 119.529 223.389C109.388 226.252 98.9097 227.737 88.3736 227.802C65.7159 227.802 44.4623 220.364 24.8407 205.087ZM75.8897 179.505C70.6908 176.151 66.4607 171.493 63.6222 165.994C60.7837 160.496 59.4374 154.351 59.7117 148.171C59.8954 140.622 59.7469 133.072 59.7469 125.121H111.263V159.062H132.111V153.153C132.111 129.263 131.666 105.364 132.227 81.4889C132.901 53.1995 118.983 34.8977 94.4532 23.906C73.4161 14.472 51.4504 13.8782 29.2243 19.3765C27.4351 19.8194 25.6409 20.227 22.1934 21.0424C29.4802 13.8092 38.4325 8.47746 48.2646 5.51616C83.7509 -5.49562 116.633 -0.138204 146.173 22.6478C153.815 28.3102 160.031 35.6805 164.321 44.1706C168.612 52.661 170.859 62.0363 170.884 71.5491C171.372 98.4595 170.937 125.385 170.884 152.305C170.861 164.724 164.203 173.282 154.618 179.938C144.26 187.13 129.99 190.706 115.697 190.708C101.061 190.711 86.4007 186.969 75.8897 179.505Z" fill="#665AA6"/>
</svg>
