<svg xmlns="http://www.w3.org/2000/svg" xmlns:xlink="http://www.w3.org/1999/xlink" viewBox="0 0 1045.79 171.44"><defs><style>.cls-1{fill:#fff;}.cls-2{fill:url(#linear-gradient);}</style><linearGradient id="linear-gradient" x1="-83.75" y1="1370.44" x2="-83.75" y2="1199" gradientTransform="matrix(1, 0, 0, -1, 242.5, 1370.44)" gradientUnits="userSpaceOnUse"><stop offset="0" stop-color="#e2f7e5"/><stop offset="1" stop-color="#52b788"/></linearGradient></defs><g id="Layer_2" data-name="Layer 2"><g id="Layer_1-2" data-name="Layer 1"><path class="cls-1" d="M451.31,71.33q-9.76,0-15.12,7.37t-5.36,20.42q0,27.3,20.48,27.29,8.6,0,20.82-4.29v14.51a57.8,57.8,0,0,1-22.43,4.18q-17.81,0-27.24-10.77T413,99q0-12.72,4.63-22.27a33.32,33.32,0,0,1,13.28-14.67,39.32,39.32,0,0,1,20.37-5.14,54.94,54.94,0,0,1,23.89,5.75l-5.58,14.06A92.57,92.57,0,0,0,460.41,73,27.46,27.46,0,0,0,451.31,71.33ZM563.6,98.79q0,20.25-10,31.14t-28.8,10.88q-18.75,0-28.8-10.88t-10-31.25q0-20.37,10-31.09t28.91-10.77q18.81,0,28.74,10.83T563.6,98.79Zm-59.55,0q0,13.67,5.19,20.59t15.52,6.92q20.7,0,20.7-27.51T524.87,71.22q-10.32,0-15.57,7T504.05,98.79Zm111,40.91-19.64-64h-.5Q596,95.21,596,101.75V139.7H580.51V58.1h23.55l19.31,62.4h.34l20.48-62.4h23.55v81.6H651.61V101.08q0-2.74.06-6.31t.78-19H652L630.9,139.7Zm107.83,0-19.65-64h-.5q1.07,19.53,1.06,26.07V139.7H688.33V58.1h23.55l19.31,62.4h.34L752,58.1h23.56v81.6H759.44V101.08q0-2.74,0-6.31t.78-19h-.5l-21,63.91ZM870.22,98.79q0,20.25-10.05,31.14t-28.8,10.88q-18.75,0-28.79-10.88T792.53,98.68q0-20.37,10.05-31.09t28.9-10.77q18.81,0,28.75,10.83T870.22,98.79Zm-59.55,0q0,13.67,5.18,20.59t15.52,6.92q20.71,0,20.7-27.51T831.48,71.22q-10.32,0-15.57,7T810.67,98.79Zm144.15-.67q0,20.14-11.49,30.86t-33.1,10.72h-23.1V58.1h25.61q20,0,31,10.55T954.82,98.12Zm-18,.44q0-26.28-23.21-26.28h-9.21v53.13h7.42Q936.86,125.41,936.85,98.56Zm108.94.23q0,20.25-10,31.14T1007,140.81q-18.76,0-28.8-10.88t-10-31.25q0-20.37,10-31.09t28.91-10.77q18.8,0,28.74,10.83T1045.79,98.79Zm-59.55,0q0,13.67,5.19,20.59T1007,126.3q20.7,0,20.7-27.51t-20.59-27.57q-10.32,0-15.57,7T986.24,98.79Z"/><path class="cls-2" d="M49.85,169.53c-5.62-4.48-1.39-7.48.92-10.31,15.56-19,31.43-37.75,56.82-44.28,7.06-1.81,6.48-4.48,2.09-9.15-11.76-12.46-28.85-13.08-45.09-1.15-21.89,16.07-37,37.86-51.48,60.21-2.16,3.34-3.87,9.63-10.19,4.45-2.28-1.86-4.18-3.27-1.87-6.84C19,134.81,36.83,107.14,66.77,90.39c19-10.65,36-7.91,51,8s29.51,31.57,44.23,47.39c11.74,12.6,22.31,14.25,36.79,4.68,24.18-16,40.3-39.37,56.37-62.64,18.11-26.23,33.56-54,49-81.84,2.14-3.85,3.46-8.39,9.95-4.38,4.94,3.05,3.47,5.61,1.71,8.07l-8.65,15c-20.42,36.49-41.58,72.52-68.72,104.72a185.34,185.34,0,0,1-34.91,31.55c-6.43,4.55-13.82,7.43-21.81,6.58-10.94,1.14-18.73-4.21-25.53-11.4-6.09-6.43-11.61-13.41-17.85-19.7-11.44-11.52-24.39-13.33-38.88-6.18C82.73,138.49,70.86,152,59.66,166.3c-1.74,2.22-3,5.14-5.63,5.14C52.92,171.44,51.57,170.9,49.85,169.53Zm109.45-43C185.91,114.74,202,93.19,217.19,71c10.34-15.17,19.65-31.05,29.2-46.75,2-3.34,3.5-6.3,8-3.47,3.74,2.37,5.29,4.58,2.5,9.29-18.19,30.73-36.14,61.63-62.21,86.72a121.71,121.71,0,0,1-17.51,13.75c-4.23,2.78-6.69,4.29-8.76,4.29-2.7,0-4.72-2.56-9.1-8.22ZM133.23,98c22.78-9.89,36.37-28.67,49.46-48,2.78-4.09,5.65-8.12,8.34-12.27,2.29-3.53,5-2.14,7.27-.45,2,1.5,5.11,2.71,2.46,6.62C186.51,65,173,86.57,151.52,101.4c-3.16,2.18-6.57,4.32-9.81,4.32s-6.06-2-8.48-7.7Z"/></g></g></svg>