<svg width="193" height="221" viewBox="0 0 193 221" fill="none" xmlns="http://www.w3.org/2000/svg">
<path d="M145.172 103.575H192.516C191.662 93.5885 189.258 83.7958 185.391 74.5488C179.679 60.8257 170.87 48.6094 159.654 38.8545C148.438 29.0997 135.119 22.0705 120.736 18.3164V0.926025H104.633V63.0649C114.772 64.7417 124.133 69.548 131.404 76.8106C138.687 84.0673 143.503 93.4304 145.172 103.575ZM120.736 32.7411C133.638 36.7034 145.375 43.7624 154.922 53.3023C164.47 62.8421 171.538 74.5731 175.511 87.4719H154.128C154.124 87.4292 154.11 87.3878 154.088 87.3511C147.765 72.3142 135.786 60.3645 120.734 54.0782L120.736 32.7411Z" fill="white"/>
<path d="M70.4113 18.6474C66.5236 19.7344 62.7053 21.0558 58.9774 22.6045C41.5011 29.9996 26.589 42.3764 16.1009 58.1911C5.6128 74.0059 0.0130194 92.5585 3.82537e-05 111.535C-0.0187051 132.607 6.85083 153.108 19.5622 169.915C32.2735 186.721 50.1298 198.912 70.4113 204.631V220.311H86.5147V159.851C75.4332 157.542 65.4849 151.487 58.3437 142.705C51.2024 133.922 47.3039 122.948 47.304 111.629C47.301 100.307 51.1983 89.33 58.3398 80.5449C65.4812 71.7598 75.4311 65.703 86.5147 63.3938V0.91333H70.4113V18.6474ZM70.4113 54.9798C59.604 59.9764 50.4519 67.9609 44.0354 77.9906C37.619 88.0202 34.2062 99.6763 34.1998 111.583C34.189 123.503 37.594 135.177 44.0115 145.223C50.4291 155.268 59.5905 163.264 70.4113 168.265V189.925C53.9976 184.426 39.7267 173.909 29.6147 159.86C19.5027 145.81 14.0609 128.939 14.0581 111.629C14.0588 94.3153 19.5006 77.4401 29.6144 63.388C39.7282 49.3359 54.0025 38.8176 70.4197 33.3198L70.4113 54.9798Z" fill="white"/>
<path d="M178.492 121.687H144.796C142.825 131.134 138.123 139.795 131.274 146.594C124.424 153.393 115.729 158.03 106.267 159.931H104.617V220.322H120.72V205.202C125.314 204.017 129.815 202.497 134.187 200.654C150.045 193.878 163.801 182.982 174.028 169.097C184.254 155.211 190.577 138.841 192.342 121.687H178.492ZM120.723 190.567V169.191C120.762 169.17 120.823 169.151 120.864 169.13C135.19 163.095 146.737 151.914 153.231 137.79H174.87C170.685 150.256 163.591 161.545 154.175 170.723C144.759 179.901 133.291 186.703 120.723 190.567Z" fill="white"/>
</svg>
